<svg width="85" height="23" viewBox="0 0 85 23" fill="none" xmlns="http://www.w3.org/2000/svg">
<mask id="mask0_4120_4529" style="mask-type:luminance" maskUnits="userSpaceOnUse" x="3" y="4" width="14" height="19">
<path d="M3.09167 4.85109H16.0604V22.3608H3.09167V4.85109Z" fill="white"/>
</mask>
<g mask="url(#mask0_4120_4529)">
<path fill-rule="evenodd" clip-rule="evenodd" d="M4.21866 22.3126L15.5041 18.4226C15.8375 18.3076 16.0597 18.0053 16.0597 17.6668V16.9084V6.517V5.76154C16.0597 5.42335 15.8375 5.12112 15.5041 5.0061L15.0556 4.85154C15.225 4.92931 15.3432 5.09333 15.3432 5.28481C15.3432 5.51583 15.1727 5.70828 14.9453 5.75534V5.75861C14.9409 5.75991 14.9364 5.75991 14.932 5.76122L3.64693 9.65155C3.31313 9.76657 3.09094 10.0685 3.09094 10.407V21.5571C3.09094 22.1139 3.66987 22.5018 4.21866 22.3126Z" fill="url(#paint0_linear_4120_4529)"/>
</g>
<mask id="mask1_4120_4529" style="mask-type:luminance" maskUnits="userSpaceOnUse" x="0" y="0" width="17" height="19">
<path d="M0.00012207 -1.90735e-06H16.0644V18.5992H0.00012207V-1.90735e-06Z" fill="white"/>
</mask>
<g mask="url(#mask1_4120_4529)">
<path fill-rule="evenodd" clip-rule="evenodd" d="M0.556226 12.7037L14.9369 17.6606L14.9947 17.6805C15.1984 17.7422 15.3586 17.8827 15.348 18.135C15.3374 18.3836 14.9954 18.5964 14.9954 18.5964L15.5089 18.4193C15.8424 18.3043 16.0646 18.002 16.0646 17.6635V16.9051V6.51368V5.75822C16.0646 5.42003 15.8424 5.1178 15.5089 5.00278L1.1283 0.0455933C0.579508 -0.143599 0.000244141 0.244581 0.000244141 0.801371V11.9479C0.000244141 12.2864 0.222773 12.5887 0.556226 12.7037Z" fill="url(#paint1_linear_4120_4529)"/>
</g>
<mask id="path-5-outside-1_4120_4529" maskUnits="userSpaceOnUse" x="20.2247" y="2.09577" width="64" height="18" fill="black">
<rect fill="white" x="20.2247" y="2.09577" width="64" height="18"/>
<path fill-rule="evenodd" clip-rule="evenodd" d="M78.1067 3.09577H77.1151C76.9773 3.09577 76.9131 3.15999 76.9131 3.2976V9.31579C76.9131 9.4534 76.9773 9.51762 77.1151 9.51762H78.1067C78.2444 9.51762 78.3086 9.4534 78.3086 9.31579V6.84796H79.7042C80.301 6.84796 80.4847 6.91218 80.7234 7.2241L82.422 9.39835C82.4862 9.49009 82.5413 9.51762 82.6882 9.51762H83.8543C84.0104 9.51762 84.0471 9.35248 83.9736 9.27909L82.0914 6.89383C81.8619 6.60026 81.6415 6.38926 81.3936 6.2333C81.5681 6.08652 81.7425 5.88469 81.9445 5.61864L83.7257 3.31595C83.7992 3.22421 83.7533 3.09577 83.6155 3.09577H82.4679C82.3118 3.09577 82.2659 3.12329 82.2016 3.21503L80.604 5.32507C80.3653 5.63699 80.2092 5.69203 79.5849 5.69203H78.3086V3.2976C78.3086 3.15999 78.2444 3.09577 78.1067 3.09577ZM31.135 12.8432H30.1436C30.0059 12.8432 29.9416 12.9074 29.9416 13.045V19.0632C29.9416 19.2008 30.0059 19.2651 30.1436 19.2651H31.135C31.2727 19.2651 31.3369 19.2008 31.3369 19.0632V13.045C31.3369 12.9074 31.2727 12.8432 31.135 12.8432ZM33.4872 12.8432H34.4788C34.6166 12.8432 34.6808 12.9074 34.6808 13.045V16.7055C34.6808 17.6779 34.9563 17.9623 35.902 17.9623H39.6205C39.749 17.9623 39.8225 18.0266 39.8225 18.1642V19.0632C39.8225 19.2008 39.749 19.2651 39.6205 19.2651H35.8561C33.9922 19.2651 33.2852 18.6045 33.2852 16.8431V13.045C33.2852 12.9074 33.3495 12.8432 33.4872 12.8432ZM42.5837 12.8432H41.5923C41.4546 12.8432 41.3903 12.9074 41.3903 13.045V19.0632C41.3903 19.2008 41.4546 19.2651 41.5923 19.2651H42.5837C42.7214 19.2651 42.7856 19.2008 42.7856 19.0632V13.045C42.7856 12.9074 42.7214 12.8432 42.5837 12.8432ZM47.2493 12.8432H51.381C51.5187 12.8432 51.583 12.9074 51.583 13.045V13.9441C51.583 14.0817 51.5187 14.1459 51.381 14.1459H47.2952C46.3495 14.1459 46.0741 14.4303 46.0741 15.4028V16.7055C46.0741 17.6779 46.3495 17.9623 47.2952 17.9623H51.381C51.5187 17.9623 51.583 18.0266 51.583 18.1642V19.0632C51.583 19.2008 51.5187 19.2651 51.381 19.2651H47.2493C45.3855 19.2651 44.6785 18.6045 44.6785 16.8431V15.2652C44.6785 13.5037 45.3855 12.8432 47.2493 12.8432ZM58.6304 12.8432H55.8025C53.9387 12.8432 53.2317 13.5129 53.2317 15.2652V16.8431C53.2317 18.5954 53.9387 19.2651 55.8025 19.2651H58.6304C60.4943 19.2651 61.2013 18.6045 61.2013 16.8431V15.2652C61.2013 13.5037 60.4943 12.8432 58.6304 12.8432ZM54.6273 16.7422V15.3661C54.6273 14.4028 54.8936 14.1368 55.8484 14.1368H58.5754C59.5302 14.1368 59.7965 14.4028 59.7965 15.3661V16.7422C59.7965 17.7055 59.5302 17.9715 58.5754 17.9715H55.8484C54.8936 17.9715 54.6273 17.7055 54.6273 16.7422ZM64.739 12.8432H63.9126C63.3342 12.8432 63.0955 13.0726 63.0955 13.7973V19.0632C63.0955 19.2008 63.1598 19.2651 63.2975 19.2651H64.2799C64.4084 19.2651 64.4819 19.2008 64.4819 19.0632V14.2744C64.4819 14.2102 64.5003 14.1826 64.5553 14.1826H64.638C64.6931 14.1826 64.7206 14.201 64.7573 14.2468L68.1453 18.7238C68.4299 19.1274 68.5401 19.2651 69.2012 19.2651H70.0183C70.5968 19.2651 70.8447 19.0357 70.8447 18.311V13.045C70.8447 12.9074 70.7804 12.8432 70.6427 12.8432H69.6603C69.5225 12.8432 69.4583 12.9074 69.4583 13.045V17.8339C69.4583 17.8981 69.4307 17.9256 69.3848 17.9256H69.3022C69.2471 17.9256 69.2104 17.9073 69.1828 17.8614L65.804 13.3845C65.5102 12.9808 65.4 12.8432 64.739 12.8432ZM22.8407 12.8433H27.7069C27.8354 12.8433 27.9089 12.9075 27.9089 13.0451V13.935C27.9089 14.0634 27.8354 14.1368 27.7069 14.1368H23.1069C22.7764 14.1368 22.6203 14.2928 22.6203 14.6322V14.9441C22.6203 15.2744 22.7672 15.412 23.1069 15.412H26.5408C27.5691 15.412 28.1476 15.9991 28.1476 17.0266V17.7697C28.1476 18.7147 27.5783 19.2651 26.5225 19.2651H21.4359C21.2982 19.2651 21.2339 19.2009 21.2339 19.0633V18.1734C21.2339 18.045 21.2982 17.9716 21.4359 17.9716H26.2562C26.5775 17.9716 26.7428 17.8156 26.7428 17.4762V17.1C26.7428 16.7698 26.6051 16.6322 26.2654 16.6322H22.8223C21.794 16.6322 21.2247 16.045 21.2247 15.0175V14.3386C21.2247 13.3937 21.7848 12.8433 22.8407 12.8433ZM69.6201 3.09577H72.448C74.3118 3.09577 75.0188 3.7563 75.0188 5.51772V7.09566C75.0188 8.85708 74.3118 9.51762 72.448 9.51762H69.6201C67.7563 9.51762 67.0493 8.84791 67.0493 7.09566V5.51772C67.0493 3.76548 67.7563 3.09577 69.6201 3.09577ZM68.4449 5.61864V6.99475C68.4449 7.95803 68.7111 8.22407 69.666 8.22407H72.3929C73.3478 8.22407 73.6141 7.95803 73.6141 6.99475V5.61864C73.6141 4.65536 73.3478 4.38931 72.3929 4.38931H69.666C68.7111 4.38931 68.4449 4.65536 68.4449 5.61864ZM60.0229 3.09577H59.0313C58.8936 3.09577 58.8293 3.15999 58.8293 3.2976V9.31579C58.8293 9.4534 58.8936 9.51762 59.0313 9.51762H60.0229C60.1606 9.51762 60.2249 9.4534 60.2249 9.31579V6.84796H61.6205C62.2173 6.84796 62.4009 6.91218 62.6396 7.2241L64.3382 9.39835C64.4025 9.49009 64.4576 9.51762 64.6045 9.51762H65.7705C65.9266 9.51762 65.9633 9.35248 65.8899 9.27909L64.0077 6.89383C63.7781 6.60026 63.5578 6.38926 63.3099 6.2333C63.4843 6.08652 63.6588 5.88469 63.8608 5.61864L65.642 3.31595C65.7154 3.22421 65.6695 3.09577 65.5318 3.09577H64.3841C64.228 3.09577 64.1821 3.12329 64.1178 3.21503L62.5203 5.32507C62.2815 5.63699 62.1255 5.69203 61.5011 5.69203H60.2249V3.2976C60.2249 3.15999 60.1606 3.09577 60.0229 3.09577ZM52.0925 3.09577H56.7383C56.8669 3.09577 56.9403 3.15999 56.9403 3.2976V4.19666C56.9403 4.33427 56.8669 4.39849 56.7383 4.39849H52.1384C51.1927 4.39849 50.9173 4.68289 50.9173 5.65534V6.9764C50.9173 7.94885 51.1927 8.22407 52.1384 8.22407H55.1683C55.4897 8.22407 55.6274 8.08646 55.6274 7.67363V6.99475C55.6274 6.90301 55.5907 6.86631 55.5172 6.86631H52.827C52.6985 6.86631 52.625 6.80209 52.625 6.66448V5.85716C52.625 5.72873 52.6985 5.65534 52.827 5.65534H56.6557C56.8393 5.65534 56.9312 5.74708 56.9312 5.93056V8.11398C56.9312 9.14148 56.5364 9.51762 55.7926 9.51762H52.0925C50.2287 9.51762 49.5217 8.85708 49.5217 7.09566V5.51772C49.5217 3.7563 50.2287 3.09577 52.0925 3.09577ZM41.5287 3.09577H40.7023C40.1239 3.09577 39.8852 3.32512 39.8852 4.04987V9.31579C39.8852 9.4534 39.9495 9.51762 40.0872 9.51762H41.0696C41.1981 9.51762 41.2716 9.4534 41.2716 9.31579V4.52693C41.2716 4.46271 41.29 4.43519 41.345 4.43519H41.4277C41.4828 4.43519 41.5103 4.45353 41.547 4.4994L44.935 8.97635C45.2196 9.38 45.3298 9.51762 45.9909 9.51762H46.808C47.3865 9.51762 47.6344 9.28826 47.6344 8.56351V3.2976C47.6344 3.15999 47.5701 3.09577 47.4324 3.09577H46.45C46.3122 3.09577 46.248 3.15999 46.248 3.2976V8.08646C46.248 8.15068 46.2204 8.1782 46.1745 8.1782H46.0919C46.0368 8.1782 46.0001 8.15985 45.9725 8.11398L42.5937 3.63704C42.2999 3.23338 42.1897 3.09577 41.5287 3.09577ZM33.7278 3.09577H34.2696C34.747 3.09577 35.0224 3.23338 35.3254 3.793L38.3645 9.30661C38.4288 9.43505 38.4012 9.51762 38.2543 9.51762H37.0883C36.9689 9.51762 36.9138 9.49009 36.8771 9.40753L36.2711 8.28829H31.8732L31.2764 9.40753C31.2305 9.49009 31.1846 9.51762 31.0652 9.51762H29.8624C29.7155 9.51762 29.688 9.43505 29.7523 9.30661L32.7638 3.793C33.0576 3.23338 33.3422 3.09577 33.7278 3.09577ZM32.5159 7.09566H35.6192L34.1961 4.46271C34.1686 4.41684 34.1318 4.39849 34.0859 4.39849H34.0308C33.9849 4.39849 33.9574 4.41684 33.9298 4.46271L32.5159 7.09566ZM26.8898 3.09583H21.6105C21.4269 3.09583 21.335 3.18757 21.335 3.37105V9.24245C21.335 9.42593 21.4269 9.51767 21.6105 9.51767H27.0551C28.212 9.51767 28.6802 8.96723 28.6802 7.93056V7.39846C28.6802 6.84802 28.4782 6.45353 28.0559 6.20583C28.4323 5.95813 28.6343 5.57282 28.6343 5.0499V4.60955C28.6343 3.5637 28.1293 3.09583 26.8898 3.09583ZM22.7306 8.10487V6.8205H26.495C27.0918 6.8205 27.2938 6.95811 27.2938 7.35259V7.65534C27.2938 8.05899 27.0827 8.2333 26.6144 8.2333H22.85C22.7674 8.2333 22.7306 8.19661 22.7306 8.10487ZM26.495 5.71043H22.7306V4.50863C22.7306 4.41689 22.7674 4.3802 22.85 4.3802H26.6052C27.0735 4.3802 27.2846 4.56368 27.2846 4.94899V5.22421C27.2846 5.582 27.0918 5.71043 26.495 5.71043Z"/>
</mask>
<path fill-rule="evenodd" clip-rule="evenodd" d="M78.1067 3.09577H77.1151C76.9773 3.09577 76.9131 3.15999 76.9131 3.2976V9.31579C76.9131 9.4534 76.9773 9.51762 77.1151 9.51762H78.1067C78.2444 9.51762 78.3086 9.4534 78.3086 9.31579V6.84796H79.7042C80.301 6.84796 80.4847 6.91218 80.7234 7.2241L82.422 9.39835C82.4862 9.49009 82.5413 9.51762 82.6882 9.51762H83.8543C84.0104 9.51762 84.0471 9.35248 83.9736 9.27909L82.0914 6.89383C81.8619 6.60026 81.6415 6.38926 81.3936 6.2333C81.5681 6.08652 81.7425 5.88469 81.9445 5.61864L83.7257 3.31595C83.7992 3.22421 83.7533 3.09577 83.6155 3.09577H82.4679C82.3118 3.09577 82.2659 3.12329 82.2016 3.21503L80.604 5.32507C80.3653 5.63699 80.2092 5.69203 79.5849 5.69203H78.3086V3.2976C78.3086 3.15999 78.2444 3.09577 78.1067 3.09577ZM31.135 12.8432H30.1436C30.0059 12.8432 29.9416 12.9074 29.9416 13.045V19.0632C29.9416 19.2008 30.0059 19.2651 30.1436 19.2651H31.135C31.2727 19.2651 31.3369 19.2008 31.3369 19.0632V13.045C31.3369 12.9074 31.2727 12.8432 31.135 12.8432ZM33.4872 12.8432H34.4788C34.6166 12.8432 34.6808 12.9074 34.6808 13.045V16.7055C34.6808 17.6779 34.9563 17.9623 35.902 17.9623H39.6205C39.749 17.9623 39.8225 18.0266 39.8225 18.1642V19.0632C39.8225 19.2008 39.749 19.2651 39.6205 19.2651H35.8561C33.9922 19.2651 33.2852 18.6045 33.2852 16.8431V13.045C33.2852 12.9074 33.3495 12.8432 33.4872 12.8432ZM42.5837 12.8432H41.5923C41.4546 12.8432 41.3903 12.9074 41.3903 13.045V19.0632C41.3903 19.2008 41.4546 19.2651 41.5923 19.2651H42.5837C42.7214 19.2651 42.7856 19.2008 42.7856 19.0632V13.045C42.7856 12.9074 42.7214 12.8432 42.5837 12.8432ZM47.2493 12.8432H51.381C51.5187 12.8432 51.583 12.9074 51.583 13.045V13.9441C51.583 14.0817 51.5187 14.1459 51.381 14.1459H47.2952C46.3495 14.1459 46.0741 14.4303 46.0741 15.4028V16.7055C46.0741 17.6779 46.3495 17.9623 47.2952 17.9623H51.381C51.5187 17.9623 51.583 18.0266 51.583 18.1642V19.0632C51.583 19.2008 51.5187 19.2651 51.381 19.2651H47.2493C45.3855 19.2651 44.6785 18.6045 44.6785 16.8431V15.2652C44.6785 13.5037 45.3855 12.8432 47.2493 12.8432ZM58.6304 12.8432H55.8025C53.9387 12.8432 53.2317 13.5129 53.2317 15.2652V16.8431C53.2317 18.5954 53.9387 19.2651 55.8025 19.2651H58.6304C60.4943 19.2651 61.2013 18.6045 61.2013 16.8431V15.2652C61.2013 13.5037 60.4943 12.8432 58.6304 12.8432ZM54.6273 16.7422V15.3661C54.6273 14.4028 54.8936 14.1368 55.8484 14.1368H58.5754C59.5302 14.1368 59.7965 14.4028 59.7965 15.3661V16.7422C59.7965 17.7055 59.5302 17.9715 58.5754 17.9715H55.8484C54.8936 17.9715 54.6273 17.7055 54.6273 16.7422ZM64.739 12.8432H63.9126C63.3342 12.8432 63.0955 13.0726 63.0955 13.7973V19.0632C63.0955 19.2008 63.1598 19.2651 63.2975 19.2651H64.2799C64.4084 19.2651 64.4819 19.2008 64.4819 19.0632V14.2744C64.4819 14.2102 64.5003 14.1826 64.5553 14.1826H64.638C64.6931 14.1826 64.7206 14.201 64.7573 14.2468L68.1453 18.7238C68.4299 19.1274 68.5401 19.2651 69.2012 19.2651H70.0183C70.5968 19.2651 70.8447 19.0357 70.8447 18.311V13.045C70.8447 12.9074 70.7804 12.8432 70.6427 12.8432H69.6603C69.5225 12.8432 69.4583 12.9074 69.4583 13.045V17.8339C69.4583 17.8981 69.4307 17.9256 69.3848 17.9256H69.3022C69.2471 17.9256 69.2104 17.9073 69.1828 17.8614L65.804 13.3845C65.5102 12.9808 65.4 12.8432 64.739 12.8432ZM22.8407 12.8433H27.7069C27.8354 12.8433 27.9089 12.9075 27.9089 13.0451V13.935C27.9089 14.0634 27.8354 14.1368 27.7069 14.1368H23.1069C22.7764 14.1368 22.6203 14.2928 22.6203 14.6322V14.9441C22.6203 15.2744 22.7672 15.412 23.1069 15.412H26.5408C27.5691 15.412 28.1476 15.9991 28.1476 17.0266V17.7697C28.1476 18.7147 27.5783 19.2651 26.5225 19.2651H21.4359C21.2982 19.2651 21.2339 19.2009 21.2339 19.0633V18.1734C21.2339 18.045 21.2982 17.9716 21.4359 17.9716H26.2562C26.5775 17.9716 26.7428 17.8156 26.7428 17.4762V17.1C26.7428 16.7698 26.6051 16.6322 26.2654 16.6322H22.8223C21.794 16.6322 21.2247 16.045 21.2247 15.0175V14.3386C21.2247 13.3937 21.7848 12.8433 22.8407 12.8433ZM69.6201 3.09577H72.448C74.3118 3.09577 75.0188 3.7563 75.0188 5.51772V7.09566C75.0188 8.85708 74.3118 9.51762 72.448 9.51762H69.6201C67.7563 9.51762 67.0493 8.84791 67.0493 7.09566V5.51772C67.0493 3.76548 67.7563 3.09577 69.6201 3.09577ZM68.4449 5.61864V6.99475C68.4449 7.95803 68.7111 8.22407 69.666 8.22407H72.3929C73.3478 8.22407 73.6141 7.95803 73.6141 6.99475V5.61864C73.6141 4.65536 73.3478 4.38931 72.3929 4.38931H69.666C68.7111 4.38931 68.4449 4.65536 68.4449 5.61864ZM60.0229 3.09577H59.0313C58.8936 3.09577 58.8293 3.15999 58.8293 3.2976V9.31579C58.8293 9.4534 58.8936 9.51762 59.0313 9.51762H60.0229C60.1606 9.51762 60.2249 9.4534 60.2249 9.31579V6.84796H61.6205C62.2173 6.84796 62.4009 6.91218 62.6396 7.2241L64.3382 9.39835C64.4025 9.49009 64.4576 9.51762 64.6045 9.51762H65.7705C65.9266 9.51762 65.9633 9.35248 65.8899 9.27909L64.0077 6.89383C63.7781 6.60026 63.5578 6.38926 63.3099 6.2333C63.4843 6.08652 63.6588 5.88469 63.8608 5.61864L65.642 3.31595C65.7154 3.22421 65.6695 3.09577 65.5318 3.09577H64.3841C64.228 3.09577 64.1821 3.12329 64.1178 3.21503L62.5203 5.32507C62.2815 5.63699 62.1255 5.69203 61.5011 5.69203H60.2249V3.2976C60.2249 3.15999 60.1606 3.09577 60.0229 3.09577ZM52.0925 3.09577H56.7383C56.8669 3.09577 56.9403 3.15999 56.9403 3.2976V4.19666C56.9403 4.33427 56.8669 4.39849 56.7383 4.39849H52.1384C51.1927 4.39849 50.9173 4.68289 50.9173 5.65534V6.9764C50.9173 7.94885 51.1927 8.22407 52.1384 8.22407H55.1683C55.4897 8.22407 55.6274 8.08646 55.6274 7.67363V6.99475C55.6274 6.90301 55.5907 6.86631 55.5172 6.86631H52.827C52.6985 6.86631 52.625 6.80209 52.625 6.66448V5.85716C52.625 5.72873 52.6985 5.65534 52.827 5.65534H56.6557C56.8393 5.65534 56.9312 5.74708 56.9312 5.93056V8.11398C56.9312 9.14148 56.5364 9.51762 55.7926 9.51762H52.0925C50.2287 9.51762 49.5217 8.85708 49.5217 7.09566V5.51772C49.5217 3.7563 50.2287 3.09577 52.0925 3.09577ZM41.5287 3.09577H40.7023C40.1239 3.09577 39.8852 3.32512 39.8852 4.04987V9.31579C39.8852 9.4534 39.9495 9.51762 40.0872 9.51762H41.0696C41.1981 9.51762 41.2716 9.4534 41.2716 9.31579V4.52693C41.2716 4.46271 41.29 4.43519 41.345 4.43519H41.4277C41.4828 4.43519 41.5103 4.45353 41.547 4.4994L44.935 8.97635C45.2196 9.38 45.3298 9.51762 45.9909 9.51762H46.808C47.3865 9.51762 47.6344 9.28826 47.6344 8.56351V3.2976C47.6344 3.15999 47.5701 3.09577 47.4324 3.09577H46.45C46.3122 3.09577 46.248 3.15999 46.248 3.2976V8.08646C46.248 8.15068 46.2204 8.1782 46.1745 8.1782H46.0919C46.0368 8.1782 46.0001 8.15985 45.9725 8.11398L42.5937 3.63704C42.2999 3.23338 42.1897 3.09577 41.5287 3.09577ZM33.7278 3.09577H34.2696C34.747 3.09577 35.0224 3.23338 35.3254 3.793L38.3645 9.30661C38.4288 9.43505 38.4012 9.51762 38.2543 9.51762H37.0883C36.9689 9.51762 36.9138 9.49009 36.8771 9.40753L36.2711 8.28829H31.8732L31.2764 9.40753C31.2305 9.49009 31.1846 9.51762 31.0652 9.51762H29.8624C29.7155 9.51762 29.688 9.43505 29.7523 9.30661L32.7638 3.793C33.0576 3.23338 33.3422 3.09577 33.7278 3.09577ZM32.5159 7.09566H35.6192L34.1961 4.46271C34.1686 4.41684 34.1318 4.39849 34.0859 4.39849H34.0308C33.9849 4.39849 33.9574 4.41684 33.9298 4.46271L32.5159 7.09566ZM26.8898 3.09583H21.6105C21.4269 3.09583 21.335 3.18757 21.335 3.37105V9.24245C21.335 9.42593 21.4269 9.51767 21.6105 9.51767H27.0551C28.212 9.51767 28.6802 8.96723 28.6802 7.93056V7.39846C28.6802 6.84802 28.4782 6.45353 28.0559 6.20583C28.4323 5.95813 28.6343 5.57282 28.6343 5.0499V4.60955C28.6343 3.5637 28.1293 3.09583 26.8898 3.09583ZM22.7306 8.10487V6.8205H26.495C27.0918 6.8205 27.2938 6.95811 27.2938 7.35259V7.65534C27.2938 8.05899 27.0827 8.2333 26.6144 8.2333H22.85C22.7674 8.2333 22.7306 8.19661 22.7306 8.10487ZM26.495 5.71043H22.7306V4.50863C22.7306 4.41689 22.7674 4.3802 22.85 4.3802H26.6052C27.0735 4.3802 27.2846 4.56368 27.2846 4.94899V5.22421C27.2846 5.582 27.0918 5.71043 26.495 5.71043Z" fill="url(#paint2_linear_4120_4529)"/>
<path d="M78.3086 6.84796V6.64728H78.108V6.84796H78.3086ZM80.7234 7.2241L80.564 7.34607L80.5652 7.34765L80.7234 7.2241ZM82.422 9.39835L82.5865 9.28305L82.5801 9.27481L82.422 9.39835ZM83.9736 9.27909L83.8161 9.40341L83.8234 9.41269L83.8318 9.42105L83.9736 9.27909ZM82.0914 6.89383L81.9333 7.01745L81.9339 7.01815L82.0914 6.89383ZM81.3936 6.2333L81.2644 6.07975L81.0541 6.25676L81.2868 6.40316L81.3936 6.2333ZM81.9445 5.61864L81.7858 5.49585L81.7847 5.49729L81.9445 5.61864ZM83.7257 3.31595L83.569 3.1905L83.567 3.19316L83.7257 3.31595ZM82.2016 3.21503L82.3617 3.33626L82.366 3.33019L82.2016 3.21503ZM80.604 5.32507L80.7634 5.44704L80.764 5.44621L80.604 5.32507ZM78.3086 5.69203H78.108V5.89271H78.3086V5.69203ZM64.7573 14.2468L64.9174 14.1257L64.914 14.1214L64.7573 14.2468ZM68.1453 18.7238L68.3094 18.6081L68.3053 18.6027L68.1453 18.7238ZM69.1828 17.8614L69.3549 17.7581L69.3494 17.749L69.343 17.7405L69.1828 17.8614ZM65.804 13.3845L65.6418 13.5026L65.6438 13.5054L65.804 13.3845ZM60.2249 6.84796V6.64728H60.0242V6.84796H60.2249ZM62.6396 7.2241L62.4802 7.34607L62.4815 7.34765L62.6396 7.2241ZM64.3382 9.39835L64.5028 9.28305L64.4963 9.27481L64.3382 9.39835ZM65.8899 9.27909L65.7323 9.40341L65.7397 9.41269L65.748 9.42105L65.8899 9.27909ZM64.0077 6.89383L63.8496 7.01745L63.8501 7.01815L64.0077 6.89383ZM63.3099 6.2333L63.1807 6.07975L62.9703 6.25676L63.203 6.40316L63.3099 6.2333ZM63.8608 5.61864L63.702 5.49585L63.7009 5.49729L63.8608 5.61864ZM65.642 3.31595L65.4853 3.1905L65.4832 3.19316L65.642 3.31595ZM64.1178 3.21503L64.2779 3.33626L64.2822 3.33019L64.1178 3.21503ZM62.5203 5.32507L62.6796 5.44704L62.6803 5.44621L62.5203 5.32507ZM60.2249 5.69203H60.0242V5.89271H60.2249V5.69203ZM41.547 4.4994L41.7071 4.37826L41.7037 4.37398L41.547 4.4994ZM44.935 8.97635L45.0991 8.86063L45.095 8.85524L44.935 8.97635ZM45.9725 8.11398L46.1446 8.01067L46.1391 8.00157L46.1327 7.99309L45.9725 8.11398ZM42.5937 3.63704L42.4314 3.75516L42.4335 3.75793L42.5937 3.63704ZM35.3254 3.793L35.1489 3.88855L35.1497 3.88987L35.3254 3.793ZM38.3645 9.30661L38.5441 9.21674L38.5402 9.20974L38.3645 9.30661ZM36.8771 9.40753L37.0605 9.32597L37.0573 9.31884L37.0536 9.31198L36.8771 9.40753ZM36.2711 8.28829L36.4476 8.19274L36.3907 8.08761H36.2711V8.28829ZM31.8732 8.28829V8.08761H31.7528L31.6961 8.19387L31.8732 8.28829ZM31.2764 9.40753L31.4518 9.50506L31.4535 9.50195L31.2764 9.40753ZM29.7523 9.30661L29.576 9.21035L29.5728 9.21681L29.7523 9.30661ZM32.7638 3.793L32.9399 3.88921L32.9415 3.88629L32.7638 3.793ZM35.6192 7.09566V7.29635H35.9558L35.7958 7.00024L35.6192 7.09566ZM32.5159 7.09566L32.3391 7.00072L32.1803 7.29635H32.5159V7.09566ZM34.1961 4.46271L34.3728 4.36719L34.3681 4.3594L34.1961 4.46271ZM33.9298 4.46271L33.7576 4.35928L33.753 4.36776L33.9298 4.46271ZM28.0559 6.20583L27.9456 6.03819L27.6759 6.21563L27.9544 6.37894L28.0559 6.20583ZM22.7306 6.8205V6.61981H22.5299V6.8205H22.7306ZM22.7306 5.71043H22.5299V5.91112H22.7306V5.71043ZM77.1151 3.29645H78.1067V2.89509H77.1151V3.29645ZM77.1137 3.2976C77.1137 3.28811 77.1143 3.28118 77.1149 3.27642C77.1153 3.27407 77.1156 3.27236 77.1158 3.27122C77.1161 3.27009 77.1163 3.26956 77.1163 3.26957C77.1162 3.26963 77.1155 3.27181 77.1135 3.27527C77.1114 3.27884 77.1083 3.28298 77.1043 3.28705C77.1002 3.29111 77.0961 3.29415 77.0925 3.29625C77.089 3.29828 77.0869 3.29898 77.0869 3.29899C77.0869 3.29899 77.087 3.29895 77.0873 3.29887C77.0876 3.2988 77.088 3.29869 77.0886 3.29857C77.0897 3.29831 77.0914 3.29798 77.0938 3.29766C77.0986 3.29701 77.1055 3.29645 77.1151 3.29645V2.89509C77.0188 2.89509 76.9065 2.91729 76.8206 3.00312C76.7346 3.08898 76.7124 3.20131 76.7124 3.2976H77.1137ZM77.1137 9.31579V3.2976H76.7124V9.31579H77.1137ZM77.1151 9.31693C77.1055 9.31693 77.0986 9.31637 77.0938 9.31572C77.0914 9.3154 77.0897 9.31508 77.0886 9.31482C77.088 9.31469 77.0876 9.31459 77.0873 9.31451C77.087 9.31444 77.0869 9.31439 77.0869 9.31439C77.0869 9.3144 77.089 9.31511 77.0925 9.31714C77.0961 9.31923 77.1002 9.32227 77.1043 9.32634C77.1083 9.33041 77.1114 9.33455 77.1135 9.33811C77.1155 9.34158 77.1162 9.34376 77.1163 9.34381C77.1163 9.34382 77.1161 9.3433 77.1158 9.34216C77.1156 9.34103 77.1153 9.33932 77.1149 9.33697C77.1143 9.33221 77.1137 9.32527 77.1137 9.31579H76.7124C76.7124 9.41208 76.7346 9.52441 76.8206 9.61027C76.9065 9.69609 77.0188 9.7183 77.1151 9.7183V9.31693ZM78.1067 9.31693H77.1151V9.7183H78.1067V9.31693ZM78.108 9.31579C78.108 9.32527 78.1074 9.33221 78.1068 9.33697C78.1064 9.33932 78.1061 9.34103 78.1059 9.34217C78.1056 9.34331 78.1054 9.34383 78.1054 9.34382C78.1055 9.34376 78.1062 9.34159 78.1082 9.33812C78.1103 9.33455 78.1134 9.33041 78.1174 9.32635C78.1215 9.32228 78.1257 9.31924 78.1292 9.31714C78.1327 9.31511 78.1348 9.3144 78.1348 9.31439C78.1348 9.31439 78.1347 9.31444 78.1344 9.31451C78.1342 9.31459 78.1337 9.31469 78.1332 9.31482C78.132 9.31508 78.1303 9.3154 78.1279 9.31572C78.1231 9.31637 78.1162 9.31693 78.1067 9.31693V9.7183C78.2029 9.7183 78.3152 9.69609 78.4011 9.61026C78.4871 9.5244 78.5093 9.41207 78.5093 9.31579H78.108ZM78.108 6.84796V9.31579H78.5093V6.84796H78.108ZM79.7042 6.64728H78.3086V7.04865H79.7042V6.64728ZM80.8827 7.10213C80.7511 6.93009 80.617 6.80381 80.4171 6.73061C80.23 6.66212 80.0027 6.64728 79.7042 6.64728V7.04865C80.0026 7.04865 80.1655 7.06591 80.2791 7.10751C80.3799 7.1444 80.457 7.20619 80.564 7.34607L80.8827 7.10213ZM82.5801 9.27481L80.8815 7.10055L80.5652 7.34765L82.2638 9.5219L82.5801 9.27481ZM82.6882 9.31693C82.657 9.31693 82.6368 9.31542 82.6234 9.31341C82.6107 9.3115 82.6068 9.30956 82.6075 9.30985C82.6132 9.31246 82.6085 9.3148 82.5863 9.28321L82.2576 9.5135C82.2997 9.57365 82.3547 9.63562 82.4407 9.67493C82.5209 9.71157 82.6067 9.7183 82.6882 9.7183V9.31693ZM83.8543 9.31693H82.6882V9.7183H83.8543V9.31693ZM83.8318 9.42105C83.8173 9.40661 83.8119 9.39136 83.8102 9.38141C83.8085 9.37162 83.8094 9.36233 83.8128 9.3535C83.8166 9.34387 83.824 9.33314 83.8356 9.32517C83.8479 9.31674 83.8567 9.31693 83.8543 9.31693V9.7183C84.0153 9.7183 84.1378 9.62596 84.1872 9.49825C84.2309 9.38524 84.2167 9.23826 84.1155 9.13713L83.8318 9.42105ZM81.9339 7.01815L83.8161 9.40341L84.1312 9.15477L82.249 6.76952L81.9339 7.01815ZM81.2868 6.40316C81.5097 6.54343 81.7136 6.73641 81.9333 7.01744L82.2495 6.77022C82.0102 6.46412 81.7733 6.23509 81.5005 6.06344L81.2868 6.40316ZM81.7847 5.49729C81.5853 5.7599 81.4216 5.94752 81.2644 6.07975L81.5228 6.38686C81.7146 6.22551 81.8998 6.00948 82.1044 5.73999L81.7847 5.49729ZM83.567 3.19316L81.7858 5.49585L82.1033 5.74143L83.8845 3.43874L83.567 3.19316ZM83.6155 3.29645C83.6185 3.29645 83.6107 3.29697 83.5982 3.28949C83.5854 3.28188 83.5738 3.26935 83.5667 3.25347C83.5521 3.22085 83.5642 3.19662 83.5691 3.19052L83.8824 3.44138C83.9607 3.34354 83.9866 3.20922 83.933 3.08945C83.8766 2.96355 83.7518 2.89509 83.6155 2.89509V3.29645ZM82.4679 3.29645H83.6155V2.89509H82.4679V3.29645ZM82.366 3.33019C82.3918 3.29323 82.3947 3.29838 82.3857 3.30261C82.3828 3.30398 82.3959 3.29645 82.4679 3.29645V2.89509C82.3838 2.89509 82.2959 2.90132 82.2149 2.93939C82.1279 2.98032 82.0756 3.0451 82.0372 3.09988L82.366 3.33019ZM80.764 5.44621L82.3616 3.33617L82.0416 3.0939L80.444 5.20393L80.764 5.44621ZM79.5849 5.89271C79.8942 5.89271 80.1227 5.88051 80.3069 5.81439C80.5065 5.74273 80.634 5.61604 80.7634 5.44704L80.4447 5.2031C80.3353 5.34601 80.2655 5.40281 80.1712 5.43664C80.0616 5.47603 79.8999 5.49135 79.5849 5.49135V5.89271ZM78.3086 5.89271H79.5849V5.49135H78.3086V5.89271ZM78.108 3.2976V5.69203H78.5093V3.2976H78.108ZM78.1067 3.29645C78.1162 3.29645 78.1231 3.29701 78.1279 3.29766C78.1303 3.29798 78.132 3.29831 78.1332 3.29857C78.1337 3.29869 78.1342 3.2988 78.1344 3.29887C78.1347 3.29895 78.1348 3.29899 78.1348 3.29899C78.1348 3.29898 78.1327 3.29828 78.1292 3.29624C78.1257 3.29415 78.1215 3.29111 78.1174 3.28704C78.1134 3.28297 78.1103 3.27883 78.1082 3.27527C78.1062 3.2718 78.1055 3.26962 78.1054 3.26957C78.1054 3.26956 78.1056 3.27008 78.1059 3.27122C78.1061 3.27236 78.1064 3.27407 78.1068 3.27642C78.1074 3.28118 78.108 3.28811 78.108 3.2976H78.5093C78.5093 3.20131 78.4871 3.08899 78.4011 3.00312C78.3152 2.91729 78.2029 2.89509 78.1067 2.89509V3.29645ZM30.1436 13.0439H31.135V12.6425H30.1436V13.0439ZM30.1423 13.045C30.1423 13.0356 30.1429 13.0286 30.1435 13.0239C30.1438 13.0215 30.1442 13.0198 30.1444 13.0187C30.1447 13.0175 30.1448 13.017 30.1448 13.017C30.1448 13.0171 30.1441 13.0192 30.1421 13.0227C30.14 13.0263 30.1369 13.0304 30.1328 13.0345C30.1288 13.0385 30.1246 13.0416 30.1211 13.0437C30.1176 13.0457 30.1155 13.0464 30.1154 13.0464C30.1154 13.0464 30.1156 13.0464 30.1158 13.0463C30.1161 13.0462 30.1165 13.0461 30.1171 13.046C30.1183 13.0458 30.12 13.0454 30.1223 13.0451C30.1271 13.0445 30.1341 13.0439 30.1436 13.0439V12.6425C30.0473 12.6425 29.935 12.6647 29.8491 12.7506C29.7632 12.8364 29.741 12.9488 29.741 13.045H30.1423ZM30.1423 19.0632V13.045H29.741V19.0632H30.1423ZM30.1436 19.0644C30.1341 19.0644 30.1271 19.0638 30.1223 19.0632C30.12 19.0628 30.1183 19.0625 30.1171 19.0623C30.1165 19.0621 30.1161 19.062 30.1158 19.062C30.1156 19.0619 30.1154 19.0618 30.1154 19.0618C30.1155 19.0619 30.1176 19.0626 30.1211 19.0646C30.1246 19.0667 30.1288 19.0697 30.1328 19.0738C30.1369 19.0779 30.14 19.082 30.1421 19.0856C30.1441 19.089 30.1448 19.0912 30.1448 19.0913C30.1448 19.0913 30.1447 19.0908 30.1444 19.0896C30.1442 19.0885 30.1438 19.0868 30.1435 19.0844C30.1429 19.0797 30.1423 19.0727 30.1423 19.0632H29.741C29.741 19.1595 29.7632 19.2718 29.8491 19.3577C29.935 19.4435 30.0473 19.4657 30.1436 19.4657V19.0644ZM31.135 19.0644H30.1436V19.4657H31.135V19.0644ZM31.1363 19.0632C31.1363 19.0727 31.1357 19.0797 31.135 19.0844C31.1347 19.0868 31.1344 19.0885 31.1342 19.0896C31.1339 19.0908 31.1337 19.0913 31.1337 19.0913C31.1338 19.0912 31.1345 19.089 31.1365 19.0856C31.1386 19.082 31.1417 19.0779 31.1457 19.0738C31.1498 19.0697 31.1539 19.0667 31.1575 19.0646C31.161 19.0626 31.1631 19.0619 31.1631 19.0618C31.1631 19.0618 31.163 19.0619 31.1627 19.062C31.1625 19.062 31.162 19.0621 31.1615 19.0623C31.1603 19.0625 31.1586 19.0628 31.1562 19.0632C31.1515 19.0638 31.1445 19.0644 31.135 19.0644V19.4657C31.2312 19.4657 31.3436 19.4435 31.4295 19.3577C31.5154 19.2718 31.5376 19.1595 31.5376 19.0632H31.1363ZM31.1363 13.045V19.0632H31.5376V13.045H31.1363ZM31.135 13.0439C31.1445 13.0439 31.1515 13.0445 31.1562 13.0451C31.1586 13.0454 31.1603 13.0458 31.1615 13.046C31.162 13.0461 31.1625 13.0462 31.1627 13.0463C31.163 13.0464 31.1631 13.0464 31.1631 13.0464C31.1631 13.0464 31.161 13.0457 31.1575 13.0437C31.1539 13.0416 31.1498 13.0385 31.1457 13.0345C31.1417 13.0304 31.1386 13.0263 31.1365 13.0227C31.1345 13.0192 31.1338 13.0171 31.1337 13.017C31.1337 13.017 31.1339 13.0175 31.1342 13.0187C31.1344 13.0198 31.1347 13.0215 31.135 13.0239C31.1357 13.0286 31.1363 13.0356 31.1363 13.045H31.5376C31.5376 12.9488 31.5154 12.8364 31.4295 12.7506C31.3436 12.6647 31.2312 12.6425 31.135 12.6425V13.0439ZM34.4788 12.6425H33.4872V13.0439H34.4788V12.6425ZM34.8815 13.045C34.8815 12.9488 34.8593 12.8364 34.7733 12.7506C34.6874 12.6647 34.5751 12.6425 34.4788 12.6425V13.0439C34.4884 13.0439 34.4953 13.0445 34.5001 13.0451C34.5025 13.0454 34.5042 13.0458 34.5053 13.046C34.5059 13.0461 34.5063 13.0462 34.5066 13.0463C34.5069 13.0464 34.507 13.0464 34.507 13.0464C34.507 13.0464 34.5048 13.0457 34.5014 13.0437C34.4978 13.0416 34.4937 13.0386 34.4896 13.0345C34.4856 13.0304 34.4825 13.0263 34.4804 13.0227C34.4784 13.0192 34.4777 13.0171 34.4776 13.017C34.4776 13.017 34.4778 13.0175 34.4781 13.0187C34.4783 13.0198 34.4786 13.0215 34.4789 13.0239C34.4796 13.0286 34.4802 13.0356 34.4802 13.045H34.8815ZM34.8815 16.7055V13.045H34.4802V16.7055H34.8815ZM35.902 17.7617C35.4352 17.7617 35.2062 17.6879 35.0807 17.5588C34.9535 17.4277 34.8815 17.1875 34.8815 16.7055H34.4802C34.4802 17.196 34.5459 17.5841 34.7928 17.8384C35.0415 18.0945 35.423 18.163 35.902 18.163V17.7617ZM39.6205 17.7617H35.902V18.163H39.6205V17.7617ZM40.0232 18.1642C40.0232 18.061 39.9951 17.9504 39.9091 17.8673C39.8244 17.7855 39.7156 17.7617 39.6205 17.7617V18.163C39.6364 18.163 39.6433 18.1651 39.6438 18.1653C39.6439 18.1653 39.6423 18.1648 39.6396 18.1632C39.6369 18.1616 39.6336 18.1592 39.6303 18.156C39.6269 18.1528 39.6243 18.1494 39.6224 18.1463C39.6205 18.1433 39.6197 18.1413 39.6196 18.141C39.6195 18.1406 39.6218 18.1471 39.6218 18.1642H40.0232ZM40.0232 19.0632V18.1642H39.6218V19.0632H40.0232ZM39.6205 19.4657C39.7156 19.4657 39.8244 19.4419 39.9091 19.3601C39.9951 19.277 40.0232 19.1664 40.0232 19.0632H39.6218C39.6218 19.0803 39.6195 19.0868 39.6196 19.0864C39.6197 19.0861 39.6205 19.0841 39.6224 19.0811C39.6243 19.078 39.6269 19.0746 39.6303 19.0714C39.6336 19.0682 39.6369 19.0658 39.6396 19.0642C39.6423 19.0626 39.6439 19.0621 39.6438 19.0622C39.6433 19.0623 39.6364 19.0644 39.6205 19.0644V19.4657ZM35.8561 19.4657H39.6205V19.0644H35.8561V19.4657ZM33.0846 16.8431C33.0846 17.7434 33.264 18.4186 33.7342 18.8608C34.2012 19.3 34.9096 19.4657 35.8561 19.4657V19.0644C34.9387 19.0644 34.3617 18.8999 34.0092 18.5684C33.66 18.24 33.4859 17.7042 33.4859 16.8431H33.0846ZM33.0846 13.045V16.8431H33.4859V13.045H33.0846ZM33.4872 12.6425C33.391 12.6425 33.2786 12.6647 33.1928 12.7506C33.1068 12.8364 33.0846 12.9488 33.0846 13.045H33.4859C33.4859 13.0356 33.4865 13.0286 33.4871 13.0239C33.4875 13.0215 33.4878 13.0198 33.488 13.0187C33.4883 13.0175 33.4885 13.017 33.4885 13.017C33.4884 13.0171 33.4877 13.0192 33.4857 13.0227C33.4836 13.0263 33.4805 13.0304 33.4764 13.0345C33.4724 13.0386 33.4682 13.0416 33.4647 13.0437C33.4612 13.0457 33.4591 13.0464 33.459 13.0464C33.459 13.0464 33.4592 13.0464 33.4595 13.0463C33.4597 13.0462 33.4602 13.0461 33.4607 13.046C33.4619 13.0458 33.4636 13.0454 33.466 13.0451C33.4708 13.0445 33.4777 13.0439 33.4872 13.0439V12.6425ZM41.5923 13.0439H42.5837V12.6425H41.5923V13.0439ZM41.591 13.045C41.591 13.0356 41.5916 13.0286 41.5922 13.0239C41.5925 13.0215 41.5928 13.0198 41.5931 13.0187C41.5934 13.0175 41.5935 13.017 41.5935 13.017C41.5935 13.0171 41.5928 13.0192 41.5907 13.0227C41.5886 13.0263 41.5856 13.0304 41.5815 13.0345C41.5774 13.0385 41.5733 13.0416 41.5698 13.0437C41.5663 13.0457 41.5641 13.0464 41.5641 13.0464C41.5641 13.0464 41.5642 13.0464 41.5645 13.0463C41.5648 13.0462 41.5652 13.0461 41.5658 13.046C41.5669 13.0458 41.5687 13.0454 41.571 13.0451C41.5758 13.0445 41.5828 13.0439 41.5923 13.0439V12.6425C41.496 12.6425 41.3837 12.6647 41.2978 12.7506C41.2119 12.8364 41.1896 12.9488 41.1896 13.045H41.591ZM41.591 19.0632V13.045H41.1896V19.0632H41.591ZM41.5923 19.0644C41.5828 19.0644 41.5758 19.0638 41.571 19.0632C41.5687 19.0628 41.5669 19.0625 41.5658 19.0623C41.5652 19.0621 41.5648 19.062 41.5645 19.062C41.5642 19.0619 41.5641 19.0618 41.5641 19.0618C41.5641 19.0619 41.5663 19.0626 41.5698 19.0646C41.5733 19.0667 41.5774 19.0697 41.5815 19.0738C41.5856 19.0779 41.5886 19.082 41.5907 19.0856C41.5928 19.089 41.5935 19.0912 41.5935 19.0913C41.5935 19.0913 41.5934 19.0908 41.5931 19.0896C41.5928 19.0885 41.5925 19.0868 41.5922 19.0844C41.5916 19.0797 41.591 19.0727 41.591 19.0632H41.1896C41.1896 19.1595 41.2119 19.2718 41.2978 19.3577C41.3837 19.4435 41.496 19.4657 41.5923 19.4657V19.0644ZM42.5837 19.0644H41.5923V19.4657H42.5837V19.0644ZM42.5849 19.0632C42.5849 19.0727 42.5844 19.0797 42.5837 19.0844C42.5834 19.0868 42.5831 19.0885 42.5828 19.0896C42.5826 19.0908 42.5824 19.0913 42.5824 19.0913C42.5824 19.0912 42.5831 19.089 42.5852 19.0856C42.5873 19.082 42.5903 19.0779 42.5944 19.0738C42.5985 19.0697 42.6026 19.0667 42.6062 19.0646C42.6096 19.0626 42.6118 19.0619 42.6118 19.0618C42.6118 19.0618 42.6117 19.0619 42.6114 19.062C42.6111 19.062 42.6107 19.0621 42.6101 19.0623C42.609 19.0625 42.6073 19.0628 42.6049 19.0632C42.6001 19.0638 42.5932 19.0644 42.5837 19.0644V19.4657C42.6799 19.4657 42.7922 19.4435 42.8781 19.3577C42.9641 19.2718 42.9863 19.1595 42.9863 19.0632H42.5849ZM42.5849 13.045V19.0632H42.9863V13.045H42.5849ZM42.5837 13.0439C42.5932 13.0439 42.6001 13.0445 42.6049 13.0451C42.6073 13.0454 42.609 13.0458 42.6101 13.046C42.6107 13.0461 42.6111 13.0462 42.6114 13.0463C42.6117 13.0464 42.6118 13.0464 42.6118 13.0464C42.6118 13.0464 42.6096 13.0457 42.6062 13.0437C42.6026 13.0416 42.5985 13.0385 42.5944 13.0345C42.5903 13.0304 42.5873 13.0263 42.5852 13.0227C42.5831 13.0192 42.5824 13.0171 42.5824 13.017C42.5824 13.017 42.5826 13.0175 42.5828 13.0187C42.5831 13.0198 42.5834 13.0215 42.5837 13.0239C42.5844 13.0286 42.5849 13.0356 42.5849 13.045H42.9863C42.9863 12.9488 42.9641 12.8364 42.8781 12.7506C42.7922 12.6647 42.6799 12.6425 42.5837 12.6425V13.0439ZM51.381 12.6425H47.2493V13.0439H51.381V12.6425ZM51.7837 13.045C51.7837 12.9488 51.7614 12.8364 51.6755 12.7506C51.5896 12.6647 51.4773 12.6425 51.381 12.6425V13.0439C51.3905 13.0439 51.3975 13.0445 51.4023 13.0451C51.4046 13.0454 51.4063 13.0458 51.4075 13.046C51.4081 13.0461 51.4085 13.0462 51.4088 13.0463C51.409 13.0464 51.4092 13.0464 51.4092 13.0464C51.4091 13.0464 51.407 13.0457 51.4035 13.0437C51.4 13.0416 51.3959 13.0386 51.3918 13.0345C51.3877 13.0304 51.3847 13.0263 51.3826 13.0227C51.3805 13.0192 51.3798 13.0171 51.3798 13.017C51.3798 13.017 51.3799 13.0175 51.3802 13.0187C51.3804 13.0198 51.3808 13.0215 51.3811 13.0239C51.3817 13.0286 51.3823 13.0356 51.3823 13.045H51.7837ZM51.7837 13.9441V13.045H51.3823V13.9441H51.7837ZM51.381 14.3466C51.4773 14.3466 51.5896 14.3244 51.6755 14.2386C51.7614 14.1527 51.7837 14.0404 51.7837 13.9441H51.3823C51.3823 13.9536 51.3817 13.9605 51.3811 13.9653C51.3808 13.9676 51.3804 13.9693 51.3802 13.9705C51.3799 13.9716 51.3798 13.9721 51.3798 13.9721C51.3798 13.9721 51.3805 13.9699 51.3826 13.9664C51.3847 13.9629 51.3877 13.9587 51.3918 13.9547C51.3959 13.9506 51.4 13.9476 51.4035 13.9455C51.407 13.9434 51.4091 13.9427 51.4092 13.9427C51.4092 13.9427 51.409 13.9428 51.4088 13.9428C51.4085 13.9429 51.4081 13.943 51.4075 13.9431C51.4063 13.9434 51.4046 13.9437 51.4023 13.944C51.3975 13.9447 51.3905 13.9453 51.381 13.9453V14.3466ZM47.2952 14.3466H51.381V13.9453H47.2952V14.3466ZM46.2748 15.4028C46.2748 14.9208 46.3467 14.6805 46.474 14.5495C46.5994 14.4203 46.8285 14.3466 47.2952 14.3466V13.9453C46.8163 13.9453 46.4348 14.0137 46.186 14.2699C45.9391 14.5241 45.8734 14.9123 45.8734 15.4028H46.2748ZM46.2748 16.7055V15.4028H45.8734V16.7055H46.2748ZM47.2952 17.7617C46.8285 17.7617 46.5994 17.6879 46.474 17.5588C46.3467 17.4277 46.2748 17.1875 46.2748 16.7055H45.8734C45.8734 17.196 45.9391 17.5841 46.186 17.8384C46.4348 18.0945 46.8163 18.163 47.2952 18.163V17.7617ZM51.381 17.7617H47.2952V18.163H51.381V17.7617ZM51.7837 18.1642C51.7837 18.0679 51.7614 17.9556 51.6755 17.8697C51.5896 17.7839 51.4773 17.7617 51.381 17.7617V18.163C51.3905 18.163 51.3975 18.1636 51.4023 18.1642C51.4046 18.1646 51.4063 18.1649 51.4075 18.1651C51.4081 18.1653 51.4085 18.1654 51.4088 18.1654C51.409 18.1655 51.4092 18.1656 51.4092 18.1656C51.4091 18.1656 51.407 18.1649 51.4035 18.1628C51.4 18.1607 51.3959 18.1577 51.3918 18.1536C51.3877 18.1495 51.3847 18.1454 51.3826 18.1418C51.3805 18.1384 51.3798 18.1362 51.3798 18.1361C51.3798 18.1361 51.3799 18.1367 51.3802 18.1378C51.3804 18.1389 51.3808 18.1406 51.3811 18.143C51.3817 18.1478 51.3823 18.1547 51.3823 18.1642H51.7837ZM51.7837 19.0632V18.1642H51.3823V19.0632H51.7837ZM51.381 19.4657C51.4773 19.4657 51.5896 19.4435 51.6755 19.3577C51.7614 19.2719 51.7837 19.1595 51.7837 19.0632H51.3823C51.3823 19.0727 51.3817 19.0797 51.3811 19.0844C51.3808 19.0868 51.3804 19.0885 51.3802 19.0896C51.3799 19.0907 51.3798 19.0913 51.3798 19.0913C51.3798 19.0912 51.3805 19.089 51.3826 19.0856C51.3847 19.082 51.3877 19.0779 51.3918 19.0738C51.3959 19.0697 51.4 19.0667 51.4035 19.0646C51.407 19.0626 51.4091 19.0618 51.4092 19.0618C51.4092 19.0618 51.409 19.0619 51.4088 19.062C51.4085 19.062 51.4081 19.0621 51.4075 19.0623C51.4063 19.0625 51.4046 19.0628 51.4023 19.0632C51.3975 19.0638 51.3905 19.0644 51.381 19.0644V19.4657ZM47.2493 19.4657H51.381V19.0644H47.2493V19.4657ZM44.4778 16.8431C44.4778 17.7434 44.6572 18.4186 45.1275 18.8608C45.5945 19.3 46.3028 19.4657 47.2493 19.4657V19.0644C46.332 19.0644 45.7549 18.8999 45.4024 18.5684C45.0533 18.24 44.8792 17.7042 44.8792 16.8431H44.4778ZM44.4778 15.2652V16.8431H44.8792V15.2652H44.4778ZM47.2493 12.6425C46.3028 12.6425 45.5945 12.8083 45.1275 13.2475C44.6572 13.6897 44.4778 14.3649 44.4778 15.2652H44.8792C44.8792 14.404 45.0533 13.8682 45.4024 13.5399C45.7549 13.2084 46.332 13.0439 47.2493 13.0439V12.6425ZM55.8025 13.0439H58.6304V12.6425H55.8025V13.0439ZM53.4324 15.2652C53.4324 14.4089 53.6064 13.8728 53.9559 13.5431C54.3085 13.2105 54.8858 13.0439 55.8025 13.0439V12.6425C54.8555 12.6425 54.1473 12.8108 53.6805 13.2511C53.2106 13.6943 53.031 14.3691 53.031 15.2652H53.4324ZM53.4324 16.8431V15.2652H53.031V16.8431H53.4324ZM55.8025 19.0644C54.8858 19.0644 54.3085 18.8978 53.9559 18.5652C53.6064 18.2355 53.4324 17.6993 53.4324 16.8431H53.031C53.031 17.7391 53.2106 18.4139 53.6805 18.8572C54.1473 19.2974 54.8555 19.4657 55.8025 19.4657V19.0644ZM58.6304 19.0644H55.8025V19.4657H58.6304V19.0644ZM61.0006 16.8431C61.0006 17.7042 60.8265 18.24 60.4773 18.5684C60.1248 18.8999 59.5478 19.0644 58.6304 19.0644V19.4657C59.5769 19.4657 60.2853 19.3 60.7523 18.8608C61.2225 18.4186 61.4019 17.7434 61.4019 16.8431H61.0006ZM61.0006 15.2652V16.8431H61.4019V15.2652H61.0006ZM58.6304 13.0439C59.5478 13.0439 60.1248 13.2084 60.4773 13.5399C60.8265 13.8682 61.0006 14.404 61.0006 15.2652H61.4019C61.4019 14.3649 61.2225 13.6897 60.7523 13.2475C60.2853 12.8083 59.5769 12.6425 58.6304 12.6425V13.0439ZM54.4266 15.3661V16.7422H54.828V15.3661H54.4266ZM55.8484 13.9361C55.3679 13.9361 54.9859 13.999 54.7375 14.2487C54.4895 14.498 54.4266 14.8816 54.4266 15.3661H54.828C54.828 14.8873 54.8982 14.6563 55.0221 14.5317C55.1456 14.4076 55.3741 14.3374 55.8484 14.3374V13.9361ZM58.5754 13.9361H55.8484V14.3374H58.5754V13.9361ZM59.9972 15.3661C59.9972 14.8816 59.9343 14.498 59.6863 14.2487C59.4379 13.999 59.0559 13.9361 58.5754 13.9361V14.3374C59.0497 14.3374 59.2782 14.4076 59.4017 14.5317C59.5256 14.6563 59.5958 14.8873 59.5958 15.3661H59.9972ZM59.9972 16.7422V15.3661H59.5958V16.7422H59.9972ZM58.5754 18.1722C59.0559 18.1722 59.4379 18.1093 59.6863 17.8596C59.9343 17.6103 59.9972 17.2266 59.9972 16.7422H59.5958C59.5958 17.221 59.5256 17.452 59.4017 17.5766C59.2782 17.7007 59.0497 17.7708 58.5754 17.7708V18.1722ZM55.8484 18.1722H58.5754V17.7708H55.8484V18.1722ZM54.4266 16.7422C54.4266 17.2266 54.4895 17.6103 54.7375 17.8596C54.9859 18.1093 55.3679 18.1722 55.8484 18.1722V17.7708C55.3741 17.7708 55.1456 17.7007 55.0221 17.5766C54.8982 17.452 54.828 17.221 54.828 16.7422H54.4266ZM63.9126 13.0439H64.739V12.6425H63.9126V13.0439ZM63.2962 13.7973C63.2962 13.4464 63.3563 13.2724 63.4369 13.1821C63.5113 13.0987 63.6428 13.0439 63.9126 13.0439V12.6425C63.6041 12.6425 63.3269 12.7025 63.1374 12.9149C62.954 13.1204 62.8948 13.4235 62.8948 13.7973H63.2962ZM63.2962 19.0632V13.7973H62.8948V19.0632H63.2962ZM63.2975 19.0644C63.288 19.0644 63.281 19.0638 63.2762 19.0632C63.2739 19.0628 63.2721 19.0625 63.271 19.0623C63.2704 19.0621 63.27 19.062 63.2697 19.062C63.2694 19.0619 63.2693 19.0618 63.2693 19.0618C63.2693 19.0618 63.2715 19.0626 63.2749 19.0646C63.2785 19.0667 63.2826 19.0697 63.2867 19.0738C63.2908 19.0779 63.2938 19.082 63.2959 19.0856C63.298 19.089 63.2987 19.0912 63.2987 19.0913C63.2987 19.0913 63.2985 19.0907 63.2983 19.0896C63.298 19.0885 63.2977 19.0868 63.2974 19.0844C63.2967 19.0797 63.2962 19.0727 63.2962 19.0632H62.8948C62.8948 19.1595 62.9171 19.2719 63.003 19.3577C63.0889 19.4435 63.2012 19.4657 63.2975 19.4657V19.0644ZM64.2799 19.0644H63.2975V19.4657H64.2799V19.0644ZM64.2812 19.0632C64.2812 19.0803 64.2789 19.0868 64.279 19.0864C64.2792 19.0861 64.2799 19.0841 64.2818 19.0811C64.2837 19.078 64.2863 19.0746 64.2897 19.0714C64.293 19.0682 64.2963 19.0658 64.2991 19.0642C64.3017 19.0626 64.3033 19.0621 64.3033 19.0622C64.3027 19.0623 64.2959 19.0644 64.2799 19.0644V19.4657C64.375 19.4657 64.4838 19.4419 64.5685 19.3601C64.6545 19.277 64.6826 19.1664 64.6826 19.0632H64.2812ZM64.2812 14.2744V19.0632H64.6826V14.2744H64.2812ZM64.5553 13.9819C64.4967 13.9819 64.4041 13.9974 64.3389 14.082C64.2847 14.1525 64.2812 14.2337 64.2812 14.2744H64.6826C64.6826 14.2667 64.6832 14.2688 64.6815 14.2765C64.6797 14.2847 64.674 14.3048 64.657 14.3268C64.6385 14.3508 64.6146 14.3669 64.5917 14.3756C64.5714 14.3833 64.557 14.3833 64.5553 14.3833V13.9819ZM64.638 13.9819H64.5553V14.3833H64.638V13.9819ZM64.914 14.1214C64.8904 14.0919 64.855 14.0519 64.8029 14.0226C64.7464 13.9908 64.6893 13.9819 64.638 13.9819V14.3833C64.6408 14.3833 64.6377 14.3836 64.6309 14.3821C64.6235 14.3804 64.6147 14.3773 64.6062 14.3725C64.5981 14.3679 64.5936 14.3638 64.5928 14.363C64.5924 14.3627 64.5947 14.3648 64.6007 14.3723L64.914 14.1214ZM68.3053 18.6027L64.9174 14.1257L64.5973 14.3679L67.9853 18.8449L68.3053 18.6027ZM69.2012 19.0644C68.8781 19.0644 68.7307 19.0292 68.6331 18.9724C68.5319 18.9135 68.4573 18.8179 68.3093 18.6081L67.9813 18.8394C68.118 19.0333 68.2408 19.2084 68.4311 19.3192C68.625 19.4321 68.8632 19.4657 69.2012 19.4657V19.0644ZM70.0183 19.0644H69.2012V19.4657H70.0183V19.0644ZM70.644 18.311C70.644 18.6604 70.5821 18.8343 70.4998 18.9249C70.4229 19.0097 70.2881 19.0644 70.0183 19.0644V19.4657C70.327 19.4657 70.6054 19.4058 70.797 19.1947C70.9833 18.9894 71.0454 18.6862 71.0454 18.311H70.644ZM70.644 13.045V18.311H71.0454V13.045H70.644ZM70.6427 13.0439C70.6522 13.0439 70.6592 13.0445 70.6639 13.0451C70.6663 13.0454 70.668 13.0458 70.6692 13.046C70.6698 13.0461 70.6702 13.0462 70.6705 13.0463C70.6707 13.0464 70.6709 13.0464 70.6709 13.0464C70.6708 13.0464 70.6687 13.0457 70.6652 13.0437C70.6617 13.0416 70.6575 13.0386 70.6535 13.0345C70.6494 13.0304 70.6464 13.0263 70.6442 13.0227C70.6422 13.0193 70.6415 13.0171 70.6415 13.017C70.6415 13.017 70.6416 13.0175 70.6419 13.0187C70.6421 13.0198 70.6425 13.0215 70.6428 13.0239C70.6434 13.0286 70.644 13.0356 70.644 13.045H71.0454C71.0454 12.9488 71.0231 12.8364 70.9372 12.7506C70.8513 12.6647 70.7389 12.6425 70.6427 12.6425V13.0439ZM69.6603 13.0439H70.6427V12.6425H69.6603V13.0439ZM69.659 13.045C69.659 13.0356 69.6595 13.0286 69.6602 13.0239C69.6605 13.0215 69.6608 13.0198 69.6611 13.0187C69.6613 13.0175 69.6615 13.017 69.6615 13.017C69.6614 13.0171 69.6607 13.0192 69.6587 13.0227C69.6566 13.0263 69.6535 13.0304 69.6495 13.0345C69.6454 13.0386 69.6413 13.0416 69.6377 13.0437C69.6343 13.0457 69.6321 13.0464 69.6321 13.0464C69.6321 13.0464 69.6322 13.0464 69.6325 13.0463C69.6328 13.0462 69.6332 13.0461 69.6338 13.046C69.6349 13.0458 69.6366 13.0454 69.639 13.0451C69.6438 13.0445 69.6507 13.0439 69.6603 13.0439V12.6425C69.564 12.6425 69.4517 12.6647 69.3658 12.7506C69.2798 12.8364 69.2576 12.9488 69.2576 13.045H69.659ZM69.659 17.8339V13.045H69.2576V17.8339H69.659ZM69.3848 18.1263C69.4491 18.1263 69.531 18.1054 69.5919 18.0336C69.6475 17.9679 69.659 17.8902 69.659 17.8339H69.2576C69.2576 17.8419 69.2552 17.81 69.2856 17.7742C69.3212 17.7321 69.3665 17.725 69.3848 17.725V18.1263ZM69.3022 18.1263H69.3848V17.725H69.3022V18.1263ZM69.0108 17.9647C69.0394 18.0124 69.0802 18.0574 69.1383 18.0881C69.195 18.1181 69.2528 18.1263 69.3022 18.1263V17.725C69.2965 17.725 69.3084 17.724 69.326 17.7333C69.3451 17.7434 69.3538 17.7564 69.3549 17.7581L69.0108 17.9647ZM65.6438 13.5054L69.0226 17.9823L69.343 17.7405L65.9642 13.2636L65.6438 13.5054ZM64.739 13.0439C65.0618 13.0439 65.2097 13.079 65.3088 13.1363C65.4121 13.1959 65.4889 13.2925 65.6418 13.5026L65.9663 13.2664C65.8254 13.0728 65.7002 12.8988 65.5096 12.7887C65.3149 12.6763 65.0772 12.6425 64.739 12.6425V13.0439ZM27.7069 12.6426H22.8407V13.044H27.7069V12.6426ZM28.1095 13.0451C28.1095 12.9419 28.0815 12.8313 27.9955 12.7482C27.9108 12.6664 27.802 12.6426 27.7069 12.6426V13.044C27.7228 13.044 27.7297 13.046 27.7302 13.0462C27.7303 13.0462 27.7287 13.0457 27.726 13.0441C27.7233 13.0425 27.72 13.0401 27.7166 13.0369C27.7133 13.0337 27.7107 13.0303 27.7087 13.0273C27.7069 13.0243 27.7061 13.0223 27.706 13.0219C27.7058 13.0215 27.7082 13.0281 27.7082 13.0451H28.1095ZM28.1095 13.935V13.0451H27.7082V13.935H28.1095ZM27.7069 14.3375C27.8088 14.3375 27.9161 14.3077 27.9979 14.226C28.0797 14.1443 28.1095 14.037 28.1095 13.935H27.7082C27.7082 13.9482 27.7063 13.9536 27.7064 13.9533C27.7067 13.9524 27.7087 13.9476 27.7142 13.9421C27.7197 13.9366 27.7246 13.9346 27.7253 13.9343C27.7256 13.9342 27.7202 13.9361 27.7069 13.9361V14.3375ZM23.1069 14.3375H27.7069V13.9361H23.1069V14.3375ZM22.821 14.6322C22.821 14.4892 22.8542 14.4269 22.8825 14.3982C22.9103 14.37 22.9697 14.3375 23.1069 14.3375V13.9361C22.9137 13.9361 22.7297 13.9816 22.5968 14.1163C22.4645 14.2504 22.4196 14.4358 22.4196 14.6322H22.821ZM22.821 14.9441V14.6322H22.4196V14.9441H22.821ZM23.1069 15.2113C22.9578 15.2113 22.8992 15.18 22.8749 15.1568C22.8527 15.1356 22.821 15.0844 22.821 14.9441H22.4196C22.4196 15.1341 22.4614 15.3168 22.5976 15.447C22.7317 15.5752 22.9163 15.6127 23.1069 15.6127V15.2113ZM26.5408 15.2113H23.1069V15.6127H26.5408V15.2113ZM28.3483 17.0266C28.3483 16.476 28.1927 16.0155 27.8723 15.6926C27.5516 15.3696 27.0927 15.2113 26.5408 15.2113V15.6127C27.0172 15.6127 27.3617 15.748 27.5874 15.9754C27.8133 16.203 27.9469 16.5498 27.9469 17.0266H28.3483ZM28.3483 17.7697V17.0266H27.9469V17.7697H28.3483ZM26.5225 19.4658C27.0834 19.4658 27.5452 19.3194 27.8678 19.0186C28.1925 18.7158 28.3483 18.283 28.3483 17.7697H27.9469C27.9469 18.2014 27.818 18.5163 27.5941 18.725C27.3682 18.9356 27.0173 19.0644 26.5225 19.0644V19.4658ZM21.4359 19.4658H26.5225V19.0644H21.4359V19.4658ZM21.0332 19.0633C21.0332 19.1596 21.0555 19.2719 21.1414 19.3578C21.2273 19.4436 21.3396 19.4658 21.4359 19.4658V19.0644C21.4264 19.0644 21.4194 19.0639 21.4146 19.0632C21.4123 19.0629 21.4106 19.0626 21.4094 19.0623C21.4088 19.0622 21.4084 19.0621 21.4081 19.062C21.4078 19.0619 21.4077 19.0619 21.4077 19.0619C21.4077 19.0619 21.4099 19.0626 21.4134 19.0646C21.4169 19.0667 21.421 19.0698 21.4251 19.0738C21.4292 19.0779 21.4322 19.082 21.4343 19.0856C21.4364 19.0891 21.4371 19.0913 21.4371 19.0913C21.4371 19.0913 21.4369 19.0908 21.4367 19.0897C21.4364 19.0885 21.4361 19.0868 21.4358 19.0845C21.4352 19.0797 21.4346 19.0728 21.4346 19.0633H21.0332ZM21.0332 18.1734V19.0633H21.4346V18.1734H21.0332ZM21.4359 17.7709C21.3328 17.7709 21.2221 17.7989 21.139 17.8848C21.0571 17.9695 21.0332 18.0782 21.0332 18.1734H21.4346C21.4346 18.1575 21.4366 18.1507 21.4368 18.1502C21.4368 18.1501 21.4363 18.1518 21.4347 18.1545C21.4331 18.1572 21.4307 18.1605 21.4275 18.1639C21.4243 18.1672 21.4209 18.1698 21.4178 18.1717C21.4149 18.1736 21.4129 18.1743 21.4125 18.1745C21.4122 18.1746 21.4188 18.1723 21.4359 18.1723V17.7709ZM26.2562 17.7709H21.4359V18.1723H26.2562V17.7709ZM26.5421 17.4762C26.5421 17.6163 26.508 17.6794 26.4782 17.7092C26.4483 17.739 26.3874 17.7709 26.2562 17.7709V18.1723C26.4463 18.1723 26.6287 18.1261 26.7619 17.9931C26.895 17.8601 26.9435 17.6755 26.9435 17.4762H26.5421ZM26.5421 17.1V17.4762H26.9435V17.1H26.5421ZM26.2654 16.8328C26.4148 16.8328 26.4693 16.8642 26.4907 16.8853C26.5113 16.9055 26.5421 16.9567 26.5421 17.1H26.9435C26.9435 16.9131 26.9055 16.7303 26.7723 16.5992C26.6398 16.4689 26.4557 16.4315 26.2654 16.4315V16.8328ZM22.8223 16.8328H26.2654V16.4315H22.8223V16.8328ZM21.024 15.0175C21.024 15.5674 21.1769 16.0278 21.4949 16.3509C21.8133 16.6745 22.2704 16.8328 22.8223 16.8328V16.4315C22.3459 16.4315 22.0042 16.2962 21.7809 16.0694C21.5572 15.8421 21.4254 15.4952 21.4254 15.0175H21.024ZM21.024 14.3386V15.0175H21.4254V14.3386H21.024ZM22.8407 12.6426C22.2797 12.6426 21.8198 12.789 21.4993 13.0904C21.1769 13.3935 21.024 13.8263 21.024 14.3386H21.4254C21.4254 13.9061 21.5526 13.5912 21.7742 13.3828C21.9977 13.1727 22.3458 13.044 22.8407 13.044V12.6426ZM72.448 2.89509H69.6201V3.29645H72.448V2.89509ZM75.2195 5.51772C75.2195 4.61742 75.0401 3.94227 74.5698 3.50002C74.1029 3.06087 73.3945 2.89509 72.448 2.89509V3.29645C73.3653 3.29645 73.9424 3.46094 74.2949 3.79241C74.6441 4.12079 74.8181 4.65661 74.8181 5.51772H75.2195ZM75.2195 7.09566V5.51772H74.8181V7.09566H75.2195ZM72.448 9.7183C73.3945 9.7183 74.1029 9.55252 74.5698 9.11336C75.0401 8.67112 75.2195 7.99596 75.2195 7.09566H74.8181C74.8181 7.95678 74.6441 8.4926 74.2949 8.82098C73.9424 9.15245 73.3653 9.31693 72.448 9.31693V9.7183ZM69.6201 9.7183H72.448V9.31693H69.6201V9.7183ZM66.8486 7.09566C66.8486 7.99169 67.0281 8.66649 67.4981 9.10972C67.9649 9.55 68.673 9.7183 69.6201 9.7183V9.31693C68.7034 9.31693 68.1261 9.15037 67.7735 8.81774C67.4239 8.48806 67.25 7.95188 67.25 7.09566H66.8486ZM66.8486 5.51772V7.09566H67.25V5.51772H66.8486ZM69.6201 2.89509C68.673 2.89509 67.9649 3.06338 67.4981 3.50367C67.0281 3.9469 66.8486 4.6217 66.8486 5.51772H67.25C67.25 4.6615 67.4239 4.12533 67.7735 3.79564C68.1261 3.46301 68.7034 3.29645 69.6201 3.29645V2.89509ZM68.6456 6.99475V5.61864H68.2442V6.99475H68.6456ZM69.666 8.02339C69.1916 8.02339 68.9631 7.95328 68.8396 7.82911C68.7158 7.70458 68.6456 7.47357 68.6456 6.99475H68.2442C68.2442 7.4792 68.3071 7.86286 68.5551 8.11216C68.8034 8.36184 69.1855 8.42476 69.666 8.42476V8.02339ZM72.3929 8.02339H69.666V8.42476H72.3929V8.02339ZM73.4134 6.99475C73.4134 7.47357 73.3432 7.70458 73.2193 7.82911C73.0958 7.95328 72.8673 8.02339 72.3929 8.02339V8.42476C72.8734 8.42476 73.2555 8.36184 73.5039 8.11216C73.7518 7.86286 73.8147 7.4792 73.8147 6.99475H73.4134ZM73.4134 5.61864V6.99475H73.8147V5.61864H73.4134ZM72.3929 4.59C72.8673 4.59 73.0958 4.66011 73.2193 4.78427C73.3432 4.90881 73.4134 5.13982 73.4134 5.61864H73.8147C73.8147 5.13419 73.7518 4.75053 73.5039 4.50122C73.2555 4.25154 72.8734 4.18863 72.3929 4.18863V4.59ZM69.666 4.59H72.3929V4.18863H69.666V4.59ZM68.6456 5.61864C68.6456 5.13982 68.7158 4.90881 68.8396 4.78427C68.9631 4.66011 69.1916 4.59 69.666 4.59V4.18863C69.1855 4.18863 68.8034 4.25154 68.5551 4.50122C68.3071 4.75053 68.2442 5.13419 68.2442 5.61864H68.6456ZM59.0313 3.29645H60.0229V2.89509H59.0313V3.29645ZM59.03 3.2976C59.03 3.28811 59.0305 3.28118 59.0312 3.27642C59.0315 3.27407 59.0318 3.27236 59.0321 3.27122C59.0323 3.27009 59.0325 3.26956 59.0325 3.26957C59.0325 3.26963 59.0318 3.27181 59.0297 3.27527C59.0276 3.27884 59.0246 3.28298 59.0205 3.28705C59.0164 3.29111 59.0123 3.29415 59.0087 3.29625C59.0053 3.29828 59.0031 3.29898 59.0031 3.29899C59.0031 3.29899 59.0032 3.29895 59.0035 3.29887C59.0038 3.2988 59.0042 3.29869 59.0048 3.29857C59.0059 3.29831 59.0077 3.29798 59.01 3.29766C59.0148 3.29701 59.0218 3.29645 59.0313 3.29645V2.89509C58.935 2.89509 58.8227 2.91729 58.7368 3.00312C58.6509 3.08898 58.6286 3.20131 58.6286 3.2976H59.03ZM59.03 9.31579V3.2976H58.6286V9.31579H59.03ZM59.0313 9.31693C59.0218 9.31693 59.0148 9.31637 59.01 9.31572C59.0077 9.3154 59.0059 9.31508 59.0048 9.31482C59.0042 9.31469 59.0038 9.31459 59.0035 9.31451C59.0032 9.31444 59.0031 9.31439 59.0031 9.31439C59.0031 9.3144 59.0053 9.31511 59.0087 9.31714C59.0123 9.31923 59.0164 9.32227 59.0205 9.32634C59.0246 9.33041 59.0276 9.33455 59.0297 9.33811C59.0318 9.34158 59.0325 9.34376 59.0325 9.34381C59.0325 9.34382 59.0323 9.3433 59.0321 9.34216C59.0318 9.34103 59.0315 9.33932 59.0312 9.33697C59.0305 9.33221 59.03 9.32527 59.03 9.31579H58.6286C58.6286 9.41208 58.6509 9.52441 58.7368 9.61027C58.8227 9.69609 58.935 9.7183 59.0313 9.7183V9.31693ZM60.0229 9.31693H59.0313V9.7183H60.0229V9.31693ZM60.0242 9.31579C60.0242 9.32527 60.0236 9.33221 60.023 9.33697C60.0227 9.33932 60.0223 9.34103 60.0221 9.34217C60.0218 9.34331 60.0217 9.34383 60.0217 9.34382C60.0217 9.34376 60.0224 9.34159 60.0245 9.33812C60.0266 9.33455 60.0296 9.33041 60.0337 9.32635C60.0378 9.32228 60.0419 9.31924 60.0454 9.31714C60.0489 9.31511 60.0511 9.3144 60.0511 9.31439C60.0511 9.31439 60.0509 9.31444 60.0507 9.31451C60.0504 9.31459 60.05 9.31469 60.0494 9.31482C60.0482 9.31508 60.0465 9.3154 60.0442 9.31572C60.0394 9.31637 60.0324 9.31693 60.0229 9.31693V9.7183C60.1192 9.7183 60.2315 9.69609 60.3174 9.61026C60.4033 9.5244 60.4256 9.41207 60.4256 9.31579H60.0242ZM60.0242 6.84796V9.31579H60.4256V6.84796H60.0242ZM61.6205 6.64728H60.2249V7.04865H61.6205V6.64728ZM62.799 7.10213C62.6673 6.93009 62.5332 6.80381 62.3333 6.73061C62.1462 6.66212 61.9189 6.64728 61.6205 6.64728V7.04865C61.9188 7.04865 62.0817 7.06591 62.1953 7.10751C62.2961 7.1444 62.3732 7.20619 62.4802 7.34607L62.799 7.10213ZM64.4963 9.27481L62.7978 7.10055L62.4815 7.34765L64.18 9.5219L64.4963 9.27481ZM64.6045 9.31693C64.5733 9.31693 64.553 9.31542 64.5396 9.31341C64.5269 9.3115 64.5231 9.30956 64.5237 9.30985C64.5294 9.31246 64.5247 9.3148 64.5026 9.28321L64.1738 9.5135C64.216 9.57365 64.2709 9.63562 64.357 9.67493C64.4372 9.71157 64.5229 9.7183 64.6045 9.7183V9.31693ZM65.7705 9.31693H64.6045V9.7183H65.7705V9.31693ZM65.748 9.42105C65.7336 9.40661 65.7281 9.39136 65.7264 9.38141C65.7247 9.37162 65.7257 9.36233 65.7291 9.3535C65.7328 9.34387 65.7402 9.33314 65.7518 9.32517C65.7641 9.31674 65.773 9.31693 65.7705 9.31693V9.7183C65.9315 9.7183 66.0541 9.62596 66.1034 9.49825C66.1471 9.38524 66.1329 9.23826 66.0317 9.13713L65.748 9.42105ZM63.8501 7.01815L65.7323 9.40341L66.0474 9.15477L64.1652 6.76952L63.8501 7.01815ZM63.203 6.40316C63.4259 6.54343 63.6298 6.73641 63.8496 7.01744L64.1658 6.77022C63.9264 6.46412 63.6896 6.23509 63.4167 6.06344L63.203 6.40316ZM63.7009 5.49729C63.5015 5.7599 63.3378 5.94752 63.1807 6.07975L63.4391 6.38686C63.6308 6.22551 63.816 6.00948 64.0206 5.73999L63.7009 5.49729ZM65.4832 3.19316L63.702 5.49585L64.0195 5.74143L65.8007 3.43874L65.4832 3.19316ZM65.5318 3.29645C65.5347 3.29645 65.5269 3.29697 65.5144 3.28949C65.5017 3.28188 65.49 3.26935 65.4829 3.25347C65.4683 3.22085 65.4804 3.19662 65.4853 3.19052L65.7986 3.44138C65.877 3.34354 65.9029 3.20922 65.8492 3.08945C65.7929 2.96355 65.668 2.89509 65.5318 2.89509V3.29645ZM64.3841 3.29645H65.5318V2.89509H64.3841V3.29645ZM64.2822 3.33019C64.3081 3.29323 64.3109 3.29838 64.3019 3.30261C64.299 3.30398 64.3121 3.29645 64.3841 3.29645V2.89509C64.3 2.89509 64.2121 2.90132 64.1311 2.93939C64.0441 2.98032 63.9919 3.0451 63.9535 3.09988L64.2822 3.33019ZM62.6803 5.44621L64.2778 3.33617L63.9578 3.0939L62.3603 5.20393L62.6803 5.44621ZM61.5011 5.89271C61.8104 5.89271 62.039 5.88051 62.2231 5.81439C62.4227 5.74273 62.5503 5.61604 62.6796 5.44704L62.3609 5.2031C62.2515 5.34601 62.1817 5.40281 62.0875 5.43664C61.9778 5.47603 61.8161 5.49135 61.5011 5.49135V5.89271ZM60.2249 5.89271H61.5011V5.49135H60.2249V5.89271ZM60.0242 3.2976V5.69203H60.4256V3.2976H60.0242ZM60.0229 3.29645C60.0324 3.29645 60.0394 3.29701 60.0442 3.29766C60.0465 3.29798 60.0482 3.29831 60.0494 3.29857C60.05 3.29869 60.0504 3.2988 60.0507 3.29887C60.0509 3.29895 60.0511 3.29899 60.0511 3.29899C60.0511 3.29898 60.0489 3.29828 60.0454 3.29624C60.0419 3.29415 60.0378 3.29111 60.0337 3.28704C60.0296 3.28297 60.0266 3.27883 60.0245 3.27527C60.0224 3.2718 60.0217 3.26962 60.0217 3.26957C60.0217 3.26956 60.0218 3.27008 60.0221 3.27122C60.0223 3.27236 60.0227 3.27407 60.023 3.27642C60.0236 3.28118 60.0242 3.28811 60.0242 3.2976H60.4256C60.4256 3.20131 60.4033 3.08899 60.3174 3.00312C60.2315 2.91729 60.1192 2.89509 60.0229 2.89509V3.29645ZM56.7383 2.89509H52.0925V3.29645H56.7383V2.89509ZM57.141 3.2976C57.141 3.19442 57.1129 3.08378 57.027 3.00074C56.9423 2.91892 56.8335 2.89509 56.7383 2.89509V3.29645C56.7543 3.29645 56.7612 3.29851 56.7617 3.29868C56.7618 3.29871 56.7602 3.29819 56.7575 3.29662C56.7548 3.29502 56.7515 3.29265 56.7481 3.28943C56.7448 3.2862 56.7421 3.28283 56.7402 3.27977C56.7383 3.27677 56.7376 3.27476 56.7375 3.2744C56.7373 3.27399 56.7397 3.28056 56.7397 3.2976H57.141ZM57.141 4.19666V3.2976H56.7397V4.19666H57.141ZM56.7383 4.59917C56.8335 4.59917 56.9423 4.57534 57.027 4.49352C57.1129 4.41048 57.141 4.29984 57.141 4.19666H56.7397C56.7397 4.2137 56.7373 4.22027 56.7375 4.21986C56.7376 4.2195 56.7383 4.21749 56.7402 4.21449C56.7421 4.21144 56.7448 4.20806 56.7481 4.20483C56.7515 4.20161 56.7548 4.19924 56.7575 4.19764C56.7602 4.19607 56.7618 4.19555 56.7617 4.19558C56.7612 4.19575 56.7543 4.19781 56.7383 4.19781V4.59917ZM52.1384 4.59917H56.7383V4.19781H52.1384V4.59917ZM51.118 5.65534C51.118 5.17335 51.1899 4.93309 51.3172 4.80205C51.4426 4.67289 51.6717 4.59917 52.1384 4.59917V4.19781C51.6595 4.19781 51.278 4.26628 51.0292 4.52244C50.7823 4.7767 50.7166 5.16487 50.7166 5.65534H51.118ZM51.118 6.9764V5.65534H50.7166V6.9764H51.118ZM52.1384 8.02339C51.6704 8.02339 51.4415 7.95156 51.3163 7.82424C51.1901 7.69573 51.118 7.45865 51.118 6.9764H50.7166C50.7166 7.4666 50.7822 7.85336 51.0301 8.10557C51.2791 8.35897 51.6607 8.42476 52.1384 8.42476V8.02339ZM55.1683 8.02339H52.1384V8.42476H55.1683V8.02339ZM55.4267 7.67363C55.4267 7.8676 55.3922 7.9428 55.3667 7.97217C55.3484 7.99335 55.3058 8.02339 55.1683 8.02339V8.42476C55.3522 8.42476 55.5391 8.38599 55.67 8.23516C55.7937 8.09251 55.8281 7.89249 55.8281 7.67363H55.4267ZM55.4267 6.99475V7.67363H55.8281V6.99475H55.4267ZM55.5172 7.06699C55.5228 7.06699 55.4841 7.06794 55.4499 7.02951C55.4205 6.99652 55.4267 6.9694 55.4267 6.99475H55.8281C55.8281 6.92836 55.8159 6.83702 55.7498 6.76274C55.6789 6.68303 55.5851 6.66563 55.5172 6.66563V7.06699ZM52.827 7.06699H55.5172V6.66563H52.827V7.06699ZM52.4244 6.66448C52.4244 6.76766 52.4524 6.8783 52.5384 6.96135C52.6231 7.04317 52.7319 7.06699 52.827 7.06699V6.66563C52.8111 6.66563 52.8042 6.66357 52.8037 6.6634C52.8036 6.66337 52.8052 6.66389 52.8079 6.66546C52.8106 6.66707 52.8139 6.66943 52.8172 6.67266C52.8206 6.67589 52.8232 6.67926 52.8251 6.68231C52.827 6.68531 52.8278 6.68732 52.8279 6.68768C52.828 6.68809 52.8257 6.68152 52.8257 6.66448H52.4244ZM52.4244 5.85716V6.66448H52.8257V5.85716H52.4244ZM52.827 5.45465C52.7251 5.45465 52.6177 5.48443 52.536 5.56613C52.4542 5.64785 52.4244 5.75516 52.4244 5.85716H52.8257C52.8257 5.84391 52.8276 5.83859 52.8275 5.83885C52.8272 5.83969 52.8252 5.84457 52.8197 5.85005C52.8142 5.85552 52.8093 5.85759 52.8085 5.85787C52.8083 5.85794 52.8137 5.85602 52.827 5.85602V5.45465ZM56.6557 5.45465H52.827V5.85602H56.6557V5.45465ZM57.1318 5.93056C57.1318 5.80784 57.101 5.67895 57.0041 5.58218C56.9073 5.48544 56.7784 5.45465 56.6557 5.45465V5.85602C56.7166 5.85602 56.7255 5.87111 56.7204 5.8661C56.7154 5.86107 56.7305 5.86979 56.7305 5.93056H57.1318ZM57.1318 8.11398V5.93056H56.7305V8.11398H57.1318ZM55.7926 9.7183C56.1966 9.7183 56.5487 9.61547 56.7928 9.3321C57.0308 9.0559 57.1318 8.64657 57.1318 8.11398H56.7305C56.7305 8.60889 56.6341 8.90138 56.4887 9.07012C56.3496 9.23169 56.1324 9.31693 55.7926 9.31693V9.7183ZM52.0925 9.7183H55.7926V9.31693H52.0925V9.7183ZM49.321 7.09566C49.321 7.99596 49.5004 8.67112 49.9707 9.11336C50.4377 9.55252 51.146 9.7183 52.0925 9.7183V9.31693C51.1752 9.31693 50.5981 9.15245 50.2456 8.82098C49.8965 8.4926 49.7224 7.95678 49.7224 7.09566H49.321ZM49.321 5.51772V7.09566H49.7224V5.51772H49.321ZM52.0925 2.89509C51.146 2.89509 50.4377 3.06087 49.9707 3.50002C49.5004 3.94227 49.321 4.61742 49.321 5.51772H49.7224C49.7224 4.65661 49.8965 4.12079 50.2456 3.79241C50.5981 3.46094 51.1752 3.29645 52.0925 3.29645V2.89509ZM40.7023 3.29645H41.5287V2.89509H40.7023V3.29645ZM40.0859 4.04987C40.0859 3.69897 40.146 3.52499 40.2266 3.43464C40.301 3.35121 40.4325 3.29645 40.7023 3.29645V2.89509C40.3938 2.89509 40.1166 2.95501 39.9271 3.16744C39.7437 3.37295 39.6845 3.67603 39.6845 4.04987H40.0859ZM40.0859 9.31579V4.04987H39.6845V9.31579H40.0859ZM40.0872 9.31693C40.0777 9.31693 40.0707 9.31637 40.0659 9.31572C40.0636 9.3154 40.0618 9.31508 40.0607 9.31482C40.0601 9.31469 40.0597 9.31459 40.0594 9.31451C40.0591 9.31444 40.059 9.31439 40.059 9.31439C40.059 9.3144 40.0612 9.31511 40.0646 9.31714C40.0682 9.31923 40.0723 9.32227 40.0764 9.32634C40.0805 9.33041 40.0835 9.33455 40.0856 9.33811C40.0877 9.34158 40.0884 9.34376 40.0884 9.34381C40.0884 9.34382 40.0882 9.3433 40.088 9.34217C40.0877 9.34103 40.0874 9.33932 40.0871 9.33697C40.0864 9.33221 40.0859 9.32527 40.0859 9.31579H39.6845C39.6845 9.41208 39.7068 9.52441 39.7927 9.61027C39.8786 9.69609 39.9909 9.7183 40.0872 9.7183V9.31693ZM41.0696 9.31693H40.0872V9.7183H41.0696V9.31693ZM41.0709 9.31579C41.0709 9.33283 41.0686 9.3394 41.0687 9.33899C41.0688 9.33863 41.0696 9.33662 41.0715 9.33362C41.0734 9.33056 41.076 9.32719 41.0794 9.32396C41.0827 9.32074 41.086 9.31837 41.0888 9.31677C41.0914 9.3152 41.093 9.31468 41.093 9.31471C41.0924 9.31488 41.0856 9.31693 41.0696 9.31693V9.7183C41.1647 9.7183 41.2735 9.69447 41.3582 9.61265C41.4442 9.5296 41.4723 9.41896 41.4723 9.31579H41.0709ZM41.0709 4.52693V9.31579H41.4723V4.52693H41.0709ZM41.345 4.2345C41.2864 4.2345 41.1938 4.24994 41.1286 4.33455C41.0744 4.40504 41.0709 4.48628 41.0709 4.52693H41.4723C41.4723 4.51925 41.4729 4.52133 41.4712 4.52907C41.4694 4.53728 41.4637 4.55734 41.4467 4.5794C41.4282 4.60339 41.4043 4.61949 41.3814 4.62818C41.3611 4.63584 41.3467 4.63587 41.345 4.63587V4.2345ZM41.4277 4.2345H41.345V4.63587H41.4277V4.2345ZM41.7037 4.37398C41.68 4.34444 41.6447 4.30443 41.5926 4.27515C41.5361 4.2434 41.479 4.2345 41.4277 4.2345V4.63587C41.4305 4.63587 41.4274 4.63613 41.4206 4.63462C41.4131 4.63295 41.4044 4.62983 41.3959 4.62504C41.3878 4.6205 41.3833 4.61634 41.3825 4.61557C41.3821 4.61521 41.3844 4.61737 41.3904 4.62483L41.7037 4.37398ZM45.095 8.85524L41.7071 4.3783L41.387 4.6205L44.775 9.09745L45.095 8.85524ZM45.9909 9.31693C45.6678 9.31693 45.5204 9.28175 45.4228 9.22492C45.3216 9.16603 45.2469 9.07049 45.099 8.8607L44.771 9.09199C44.9077 9.28586 45.0304 9.46096 45.2208 9.57178C45.4147 9.68467 45.6529 9.7183 45.9909 9.7183V9.31693ZM46.808 9.31693H45.9909V9.7183H46.808V9.31693ZM47.4337 8.56351C47.4337 8.913 47.3718 9.08686 47.2895 9.17746C47.2126 9.26222 47.0778 9.31693 46.808 9.31693V9.7183C47.1167 9.7183 47.3951 9.65833 47.5867 9.44723C47.773 9.24197 47.8351 8.93878 47.8351 8.56351H47.4337ZM47.4337 3.2976V8.56351H47.8351V3.2976H47.4337ZM47.4324 3.29645C47.4419 3.29645 47.4489 3.29701 47.4536 3.29766C47.456 3.29798 47.4577 3.29831 47.4589 3.29857C47.4595 3.29869 47.4599 3.2988 47.4602 3.29887C47.4604 3.29895 47.4606 3.29899 47.4606 3.29899C47.4605 3.29898 47.4584 3.29828 47.4549 3.29624C47.4514 3.29415 47.4472 3.29111 47.4432 3.28704C47.4391 3.28297 47.436 3.27884 47.4339 3.27527C47.4319 3.2718 47.4312 3.26963 47.4312 3.26957C47.4312 3.26956 47.4313 3.27008 47.4316 3.27122C47.4318 3.27236 47.4322 3.27407 47.4325 3.27642C47.4331 3.28118 47.4337 3.28811 47.4337 3.2976H47.8351C47.8351 3.20131 47.8128 3.08898 47.7269 3.00312C47.641 2.91729 47.5286 2.89509 47.4324 2.89509V3.29645ZM46.45 3.29645H47.4324V2.89509H46.45V3.29645ZM46.4486 3.2976C46.4486 3.28811 46.4492 3.28118 46.4499 3.27642C46.4502 3.27407 46.4505 3.27236 46.4507 3.27122C46.451 3.27008 46.4512 3.26956 46.4512 3.26957C46.4511 3.26963 46.4504 3.2718 46.4484 3.27527C46.4463 3.27884 46.4432 3.28298 46.4392 3.28704C46.4351 3.29111 46.431 3.29415 46.4274 3.29625C46.4239 3.29828 46.4218 3.29898 46.4218 3.29899C46.4218 3.29899 46.4219 3.29895 46.4222 3.29887C46.4225 3.2988 46.4229 3.29869 46.4235 3.29857C46.4246 3.29831 46.4263 3.29798 46.4287 3.29766C46.4335 3.29701 46.4404 3.29645 46.45 3.29645V2.89509C46.3537 2.89509 46.2414 2.91729 46.1555 3.00312C46.0695 3.08898 46.0473 3.20131 46.0473 3.2976H46.4486ZM46.4486 8.08646V3.2976H46.0473V8.08646H46.4486ZM46.1745 8.37888C46.2388 8.37888 46.3207 8.35799 46.3816 8.2861C46.4372 8.22042 46.4486 8.14271 46.4486 8.08646H46.0473C46.0473 8.09443 46.0449 8.06259 46.0753 8.02672C46.1109 7.98465 46.1562 7.97752 46.1745 7.97752V8.37888ZM46.0919 8.37888H46.1745V7.97752H46.0919V8.37888ZM45.8005 8.2173C45.8291 8.26493 45.8699 8.30996 45.928 8.34069C45.9847 8.37067 46.0424 8.37888 46.0919 8.37888V7.97752C46.0862 7.97752 46.098 7.97656 46.1157 7.9859C46.1348 7.99599 46.1435 8.00891 46.1446 8.01067L45.8005 8.2173ZM42.4335 3.75793L45.8123 8.23488L46.1327 7.99309L42.7539 3.51615L42.4335 3.75793ZM41.5287 3.29645C41.8515 3.29645 41.9994 3.33154 42.0985 3.38881C42.2018 3.44845 42.2786 3.54506 42.4315 3.75514L42.756 3.51894C42.6151 3.32536 42.4899 3.15134 42.2993 3.04126C42.1046 2.92881 41.8669 2.89509 41.5287 2.89509V3.29645ZM34.2696 2.89509H33.7278V3.29645H34.2696V2.89509ZM35.5019 3.69745C35.343 3.40394 35.178 3.19524 34.9695 3.06451C34.7581 2.93194 34.5269 2.89509 34.2696 2.89509V3.29645C34.4897 3.29645 34.6349 3.32841 34.7563 3.40455C34.8806 3.48253 35.0049 3.62245 35.1489 3.88855L35.5019 3.69745ZM38.5402 9.20974L35.5012 3.69613L35.1497 3.88987L38.1887 9.40349L38.5402 9.20974ZM38.2543 9.7183C38.3515 9.7183 38.502 9.69112 38.5703 9.54551C38.6293 9.41973 38.5811 9.29102 38.544 9.21681L38.185 9.39642C38.1954 9.41709 38.197 9.42636 38.1969 9.42571C38.1968 9.42486 38.1935 9.40367 38.2069 9.37504C38.2219 9.34305 38.2465 9.32568 38.262 9.31891C38.2737 9.31378 38.2744 9.31693 38.2543 9.31693V9.7183ZM37.0883 9.7183H38.2543V9.31693H37.0883V9.7183ZM36.6937 9.48909C36.7249 9.55926 36.7749 9.62805 36.8596 9.67181C36.9357 9.71115 37.018 9.7183 37.0883 9.7183V9.31693C37.0655 9.31693 37.0518 9.31556 37.0441 9.31424C37.0368 9.313 37.0382 9.31234 37.0438 9.31525C37.0467 9.31672 37.0499 9.31876 37.0533 9.32139C37.0566 9.32401 37.0592 9.32661 37.061 9.32877C37.0646 9.33295 37.0639 9.33365 37.0605 9.32597L36.6937 9.48909ZM36.0946 8.38384L36.7006 9.50308L37.0536 9.31198L36.4476 8.19274L36.0946 8.38384ZM31.8732 8.48897H36.2711V8.08761H31.8732V8.48897ZM31.4535 9.50195L32.0503 8.38271L31.6961 8.19387L31.0993 9.3131L31.4535 9.50195ZM31.0652 9.7183C31.1359 9.7183 31.2171 9.7111 31.293 9.67046C31.3736 9.62734 31.4201 9.56201 31.4518 9.50505L31.101 9.31001C31.0938 9.32302 31.0904 9.32668 31.0909 9.32617C31.0923 9.32457 31.0968 9.32027 31.1036 9.3166C31.1099 9.31326 31.1125 9.31346 31.107 9.31443C31.1007 9.31555 31.0881 9.31693 31.0652 9.31693V9.7183ZM29.8624 9.7183H31.0652V9.31693H29.8624V9.7183ZM29.5728 9.21681C29.5357 9.29102 29.4875 9.41973 29.5465 9.54551C29.6148 9.69112 29.7653 9.7183 29.8624 9.7183V9.31693C29.8423 9.31693 29.8431 9.31378 29.8548 9.31891C29.8702 9.32568 29.8948 9.34305 29.9098 9.37504C29.9233 9.40367 29.92 9.42486 29.9198 9.42571C29.9197 9.42636 29.9214 9.4171 29.9317 9.39642L29.5728 9.21681ZM32.5877 3.6968L29.5761 9.21041L29.9284 9.40281L32.9399 3.8892L32.5877 3.6968ZM33.7278 2.89509C33.5094 2.89509 33.299 2.93457 33.0998 3.0677C32.9051 3.19792 32.7411 3.40449 32.5861 3.69971L32.9415 3.88629C33.0803 3.6219 33.2055 3.47985 33.3229 3.40136C33.436 3.32578 33.5607 3.29645 33.7278 3.29645V2.89509ZM35.6192 6.89498H32.5159V7.29635H35.6192V6.89498ZM34.0196 4.55813L35.4427 7.19109L35.7958 7.00024L34.3726 4.36728L34.0196 4.55813ZM34.0859 4.59917C34.0815 4.59917 34.0668 4.59804 34.0496 4.58834C34.0323 4.57863 34.0248 4.56731 34.0241 4.56602L34.3681 4.3594C34.3398 4.31223 34.3002 4.26881 34.2462 4.23845C34.1922 4.20811 34.1363 4.19781 34.0859 4.19781V4.59917ZM34.0308 4.59917H34.0859V4.19781H34.0308V4.59917ZM34.1019 4.56602C34.1076 4.55654 34.1021 4.56929 34.0819 4.58225C34.0714 4.58899 34.0602 4.59369 34.0496 4.59642C34.0395 4.599 34.0326 4.59917 34.0308 4.59917V4.19781C33.9793 4.19781 33.9208 4.20867 33.865 4.24455C33.8127 4.27814 33.7796 4.323 33.7578 4.3594L34.1019 4.56602ZM32.6927 7.19061L34.1066 4.55765L33.753 4.36776L32.3391 7.00072L32.6927 7.19061ZM21.6105 3.29651H26.8898V2.89514H21.6105V3.29651ZM21.5357 3.37105C21.5357 3.31028 21.5508 3.30156 21.5457 3.30659C21.5407 3.3116 21.5496 3.29651 21.6105 3.29651V2.89514C21.4878 2.89514 21.3589 2.92593 21.2621 3.02267C21.1652 3.11944 21.1344 3.24833 21.1344 3.37105H21.5357ZM21.5357 9.24245V3.37105H21.1344V9.24245H21.5357ZM21.6105 9.31699C21.5496 9.31699 21.5407 9.3019 21.5457 9.3069C21.5508 9.31194 21.5357 9.30321 21.5357 9.24245H21.1344C21.1344 9.36517 21.1652 9.49405 21.2621 9.59083C21.3589 9.68757 21.4878 9.71835 21.6105 9.71835V9.31699ZM27.0551 9.31699H21.6105V9.71835H27.0551V9.31699ZM28.4796 7.93056C28.4796 8.42288 28.368 8.75818 28.1581 8.97245C27.949 9.18597 27.6053 9.31699 27.0551 9.31699V9.71835C27.6618 9.71835 28.1306 9.57415 28.4449 9.25328C28.7584 8.93316 28.8809 8.47491 28.8809 7.93056H28.4796ZM28.4796 7.39846V7.93056H28.8809V7.39846H28.4796ZM27.9544 6.37894C28.305 6.58457 28.4796 6.90641 28.4796 7.39846H28.8809C28.8809 6.78962 28.6515 6.32249 28.1574 6.03273L27.9544 6.37894ZM28.4336 5.0499C28.4336 5.51329 28.2592 5.8318 27.9456 6.03819L28.1662 6.37348C28.6054 6.08447 28.835 5.63236 28.835 5.0499H28.4336ZM28.4336 4.60955V5.0499H28.835V4.60955H28.4336ZM26.8898 3.29651C27.4916 3.29651 27.8676 3.41147 28.0942 3.61108C28.3147 3.80526 28.4336 4.11588 28.4336 4.60955H28.835C28.835 4.05738 28.7015 3.61113 28.3596 3.30991C28.0238 3.01413 27.5276 2.89514 26.8898 2.89514V3.29651ZM22.5299 6.8205V8.10487H22.9313V6.8205H22.5299ZM26.495 6.61981H22.7306V7.02118H26.495V6.61981ZM27.4945 7.35259C27.4945 7.12099 27.4331 6.90786 27.2298 6.77183C27.0506 6.65188 26.7963 6.61981 26.495 6.61981V7.02118C26.7906 7.02118 26.9357 7.05792 27.0066 7.1054C27.0535 7.13679 27.0931 7.18971 27.0931 7.35259H27.4945ZM27.4945 7.65534V7.35259H27.0931V7.65534H27.4945ZM26.6144 8.43398C26.8664 8.43398 27.0942 8.38841 27.2592 8.249C27.432 8.10301 27.4945 7.89081 27.4945 7.65534H27.0931C27.0931 7.82352 27.05 7.90031 27.0002 7.94238C26.9426 7.99104 26.8307 8.03262 26.6144 8.03262V8.43398ZM22.85 8.43398H26.6144V8.03262H22.85V8.43398ZM22.5299 8.10487C22.5299 8.17084 22.542 8.2657 22.6135 8.34134C22.6876 8.41977 22.7838 8.43398 22.85 8.43398V8.03262C22.8336 8.03262 22.8701 8.02849 22.9052 8.06563C22.9376 8.09999 22.9313 8.13063 22.9313 8.10487H22.5299ZM22.7306 5.91112H26.495V5.50975H22.7306V5.91112ZM22.5299 4.50863V5.71043H22.9313V4.50863H22.5299ZM22.85 4.17951C22.7838 4.17951 22.6876 4.19373 22.6135 4.27216C22.542 4.3478 22.5299 4.44265 22.5299 4.50863H22.9313C22.9313 4.48287 22.9376 4.51351 22.9052 4.54786C22.8701 4.58501 22.8336 4.58088 22.85 4.58088V4.17951ZM26.6052 4.17951H22.85V4.58088H26.6052V4.17951ZM27.4853 4.94899C27.4853 4.72001 27.4214 4.51154 27.25 4.36679C27.086 4.22824 26.8594 4.17951 26.6052 4.17951V4.58088C26.8193 4.58088 26.9324 4.62389 26.991 4.67341C27.0423 4.71673 27.084 4.79265 27.084 4.94899H27.4853ZM27.4853 5.22421V4.94899H27.084V5.22421H27.4853ZM26.495 5.91112C26.7953 5.91112 27.0447 5.88137 27.2201 5.77162C27.4233 5.64446 27.4853 5.44189 27.4853 5.22421H27.084C27.084 5.36432 27.0496 5.40486 27.0072 5.43137C26.937 5.47528 26.7916 5.50975 26.495 5.50975V5.91112Z" fill="url(#paint3_linear_4120_4529)" mask="url(#path-5-outside-1_4120_4529)"/>
<defs>
<linearGradient id="paint0_linear_4120_4529" x1="16.0597" y1="13.6063" x2="3.09097" y2="13.6063" gradientUnits="userSpaceOnUse">
<stop stop-color="#00C6FF"/>
<stop offset="0.369" stop-color="#6BC1FF"/>
<stop offset="1" stop-color="#0072FF"/>
</linearGradient>
<linearGradient id="paint1_linear_4120_4529" x1="-3.63132" y1="22.7812" x2="12.0852" y2="8.79643" gradientUnits="userSpaceOnUse">
<stop stop-color="#3447A1"/>
<stop offset="1" stop-color="#1F6DEB"/>
</linearGradient>
<linearGradient id="paint2_linear_4120_4529" x1="7.03128" y1="-0.542318" x2="13.5044" y2="25.3524" gradientUnits="userSpaceOnUse">
<stop stop-color="#3447A1"/>
<stop offset="1" stop-color="#1F6DEB"/>
</linearGradient>
<linearGradient id="paint3_linear_4120_4529" x1="7.03128" y1="-0.542318" x2="13.5044" y2="25.3524" gradientUnits="userSpaceOnUse">
<stop stop-color="#3447A1"/>
<stop offset="1" stop-color="#1F6DEB"/>
</linearGradient>
</defs>
</svg>
